<svg width="65" height="51" viewBox="0 0 65 51" fill="none" xmlns="http://www.w3.org/2000/svg">
<path d="M21.6667 0C9.75 0 0 9.83571 0 21.8571C0 33.8786 9.75 43.7143 21.6667 43.7143C33.5833 43.7143 43.3333 33.8786 43.3333 21.8571C43.3333 16.0286 40.9861 10.5643 37.0139 6.375C33.0417 2.18571 27.4444 0 21.6667 0ZM21.6667 36.4286C16.4306 36.4286 11.7361 33.6964 9.20833 29.1429C6.68055 24.5893 6.68055 18.9429 9.38889 14.5714L29.0694 34.425C26.7222 35.7 24.1944 36.4286 21.6667 36.4286ZM34.125 29.325L14.2639 9.28928C19.8611 6.01071 27.0833 6.92143 31.7778 11.6571C36.4722 16.3929 37.375 23.4964 34.125 29.325Z" fill="#BD1D1D"/>
<path d="M50.5555 51C58.533 51 65 44.4762 65 36.4286C65 28.381 58.533 21.8572 50.5555 21.8572C42.5781 21.8572 36.1111 28.381 36.1111 36.4286C36.1111 44.4762 42.5781 51 50.5555 51Z" fill="white"/>
<path d="M59.0416 27.8679C54.3472 23.1322 46.7639 23.1322 42.0694 27.8679C37.375 32.6037 37.375 40.2537 42.0694 44.9894C46.7639 49.7251 54.3472 49.7251 59.0416 44.9894C61.3889 42.6215 62.6528 39.5251 62.6528 36.4287C62.6528 33.3322 61.3889 30.0537 59.0416 27.8679ZM56.3333 32.9679L49.6528 40.8001L44.9583 37.1572C44.4166 36.9751 44.4166 36.2465 44.7778 35.8822C45.1389 35.5179 45.6805 35.3358 46.2222 35.7001L49.4722 38.2501L54.8889 31.8751C55.25 31.5108 55.7916 31.3287 56.3333 31.6929C56.6944 31.8751 56.6944 32.6037 56.3333 32.9679Z" fill="#76C2B6"/>
</svg>
