<svg width="350" height="55" viewBox="0 0 350 55" fill="none" xmlns="http://www.w3.org/2000/svg">
<path d="M40.1697 54H51.6897L28.1697 0.239998H24.5697L20.7297 8.88L40.1697 54ZM0.969696 54H12.5697L15.4497 47.12H33.5297L29.6897 38.24H19.3697L24.4897 26.24L18.8097 13.2L0.969696 54ZM73.3772 23.84H53.2172V32.88H73.3772V23.84ZM122.801 18L130.481 11.68C125.441 4.48 117.681 0.239998 108.241 0.239998C103.121 0.239998 98.321 1.6 94.481 3.92V15.52C97.521 12.56 102.401 10.24 108.081 10.24C114.561 10.24 119.281 13.12 122.801 18ZM108.561 54.96C119.121 54.96 128.721 49.84 133.441 41.52V37.84H122.641V39.52C119.681 42.72 114.721 45.28 108.641 45.28C98.481 45.28 91.121 38.16 91.121 27.04V6.32C84.481 10.8 80.0009 18.56 80.0009 27.6C80.0009 43.12 92.401 54.96 108.561 54.96ZM108.081 34.4H133.441V25.04H108.081V34.4ZM142.807 54H153.607V10.72H162.647C167.687 10.72 170.647 13.84 170.647 18.24C170.647 22.72 167.687 25.84 162.647 25.84H156.967V35.36H162.647C173.767 35.36 181.687 28.4 181.687 18.24C181.687 7.92 173.767 1.2 162.647 1.2H142.807V54ZM175.207 54H187.367L174.727 36.56L164.007 38.8L175.207 54ZM217.767 0.239998C212.727 0.239998 208.007 1.6 204.247 3.92V15.52C207.287 12.56 212.167 10.24 217.767 10.24C227.527 10.24 234.807 17.44 234.807 28.16V48.88C241.447 44.4 245.927 36.8 245.927 27.68C245.927 12.08 233.287 0.239998 217.767 0.239998ZM200.887 6.32C194.247 10.8 189.767 18.4 189.767 27.52C189.767 43.12 202.407 54.96 217.927 54.96C222.967 54.96 227.687 53.6 231.447 51.28V39.68C228.407 42.64 223.527 44.96 217.927 44.96C208.167 44.96 200.887 37.76 200.887 27.04V6.32ZM277.152 54.96C280.192 54.96 282.912 54.4 285.232 53.36V43.2C282.992 44.24 280.192 44.96 277.312 44.96C270.032 44.96 265.392 40.56 265.392 32.96V1.2H254.592V32.16C254.592 46.08 263.872 54.96 277.152 54.96ZM288.592 51.68C295.152 48.24 299.392 41.6 299.392 32.16V1.2H288.592V51.68ZM330.928 1.2H311.088V54H321.888V10.64H330.928C336.048 10.64 338.928 13.84 338.928 18.24C338.928 22.8 336.048 25.92 330.928 25.92H325.248V35.36H330.928C342.048 35.36 349.968 28.4 349.968 18.24C349.968 7.92 342.048 1.2 330.928 1.2Z" fill="#AD2929"/>
</svg>
