<svg width="65" height="51" viewBox="0 0 65 51" fill="none" xmlns="http://www.w3.org/2000/svg">
<path d="M39.7222 0H3.61111C1.625 0 0 1.63929 0 3.64286V5.46429H43.3333V3.64286C43.3333 1.63929 41.7083 0 39.7222 0ZM0 40.0714C0 42.075 1.625 43.7143 3.61111 43.7143H39.7222C41.7083 43.7143 43.3333 42.075 43.3333 40.0714V9.10714H0V40.0714ZM35.2083 14.5714C36.6528 14.5714 37.9167 15.8464 37.9167 17.3036C37.9167 18.7607 36.6528 20.0357 35.2083 20.0357C33.7639 20.0357 32.5 18.7607 32.5 17.3036C32.5 15.8464 33.7639 14.5714 35.2083 14.5714ZM35.2083 23.6786C36.6528 23.6786 37.9167 24.9536 37.9167 26.4107C37.9167 27.8679 36.6528 29.1429 35.2083 29.1429C33.7639 29.1429 32.5 27.8679 32.5 26.4107C32.5 24.9536 33.7639 23.6786 35.2083 23.6786ZM26.1806 14.5714C27.625 14.5714 28.8889 15.8464 28.8889 17.3036C28.8889 18.7607 27.625 20.0357 26.1806 20.0357C24.7361 20.0357 23.4722 18.7607 23.4722 17.3036C23.4722 15.8464 24.7361 14.5714 26.1806 14.5714ZM26.1806 23.6786C27.625 23.6786 28.8889 24.9536 28.8889 26.4107C28.8889 27.8679 27.625 29.1429 26.1806 29.1429C24.7361 29.1429 23.4722 27.8679 23.4722 26.4107C23.4722 24.9536 24.7361 23.6786 26.1806 23.6786ZM26.1806 32.7857C27.625 32.7857 28.8889 34.0607 28.8889 35.5179C28.8889 36.975 27.625 38.25 26.1806 38.25C24.7361 38.25 23.4722 36.975 23.4722 35.5179C23.4722 34.0607 24.7361 32.7857 26.1806 32.7857ZM17.1528 14.5714C18.5972 14.5714 19.8611 15.8464 19.8611 17.3036C19.8611 18.7607 18.5972 20.0357 17.1528 20.0357C15.7083 20.0357 14.4444 18.7607 14.4444 17.3036C14.4444 15.8464 15.7083 14.5714 17.1528 14.5714ZM17.1528 23.6786C18.5972 23.6786 19.8611 24.9536 19.8611 26.4107C19.8611 27.8679 18.5972 29.1429 17.1528 29.1429C15.7083 29.1429 14.4444 27.8679 14.4444 26.4107C14.4444 24.9536 15.7083 23.6786 17.1528 23.6786ZM17.1528 32.7857C18.5972 32.7857 19.8611 34.0607 19.8611 35.5179C19.8611 36.975 18.5972 38.25 17.1528 38.25C15.7083 38.25 14.4444 36.975 14.4444 35.5179C14.4444 34.0607 15.7083 32.7857 17.1528 32.7857ZM8.125 14.5714C9.56944 14.5714 10.8333 15.8464 10.8333 17.3036C10.8333 18.7607 9.56944 20.0357 8.125 20.0357C6.68056 20.0357 5.41667 18.7607 5.41667 17.3036C5.41667 15.8464 6.68056 14.5714 8.125 14.5714ZM8.125 23.6786C9.56944 23.6786 10.8333 24.9536 10.8333 26.4107C10.8333 27.8679 9.56944 29.1429 8.125 29.1429C6.68056 29.1429 5.41667 27.8679 5.41667 26.4107C5.41667 24.9536 6.68056 23.6786 8.125 23.6786ZM8.125 32.7857C9.56944 32.7857 10.8333 34.0607 10.8333 35.5179C10.8333 36.975 9.56944 38.25 8.125 38.25C6.68056 38.25 5.41667 36.975 5.41667 35.5179C5.41667 34.0607 6.68056 32.7857 8.125 32.7857Z" fill="#BD1D1D"/>
<path d="M50.5556 51C58.533 51 65 44.4762 65 36.4286C65 28.381 58.533 21.8572 50.5556 21.8572C42.5781 21.8572 36.1111 28.381 36.1111 36.4286C36.1111 44.4762 42.5781 51 50.5556 51Z" fill="white"/>
<path d="M59.0417 27.8678C54.3472 23.1321 46.7639 23.1321 42.0694 27.8678C37.375 32.6035 37.375 40.2535 42.0694 44.9893C46.7639 49.725 54.3472 49.725 59.0417 44.9893C61.3889 42.6214 62.6528 39.525 62.6528 36.4285C62.6528 33.3321 61.3889 30.0535 59.0417 27.8678ZM56.3333 32.9678L49.6528 40.8L44.9583 37.1571C44.4167 36.975 44.4167 36.2464 44.7778 35.8821C45.1389 35.5178 45.6806 35.3357 46.2222 35.7L49.4722 38.25L54.8889 31.875C55.25 31.5107 55.7917 31.3285 56.3333 31.6928C56.6944 31.875 56.6944 32.6035 56.3333 32.9678Z" fill="#76C2B6"/>
</svg>
