<svg width="64" height="50" viewBox="0 0 64 50" fill="none" xmlns="http://www.w3.org/2000/svg">
<path d="M41.9342 0.189941H3.96055C1.90791 0.189941 0.197388 1.88994 0.197388 3.92994V37.9299C0.197388 39.9699 1.90791 41.6699 3.96055 41.6699H7.7237V45.4099H15.25V41.6699H30.4737V45.4099H38V41.6699H41.7632C43.8158 41.6699 45.5263 39.9699 45.5263 37.9299V3.92994C45.6974 1.88994 43.9869 0.189941 41.9342 0.189941ZM36.2895 20.9299C36.2895 23.6499 35.6053 26.1999 34.2369 28.4099H38.1711C39.1974 28.4099 40.0526 29.2599 40.0526 30.2799C40.0526 31.2999 39.1974 32.1499 38.1711 32.1499H31.1579C28.4211 34.5299 25 35.8899 21.0658 35.8899C12.6842 35.8899 5.84212 29.0899 5.84212 20.7599C5.84212 12.4299 12.6842 5.79994 21.0658 5.79994C25 5.79994 28.4211 7.15994 31.1579 9.53994H38.1711C39.1974 9.53994 40.0526 10.3899 40.0526 11.4099C40.0526 12.4299 39.1974 13.2799 38.1711 13.2799H34.2369C35.4342 15.6599 36.2895 18.2099 36.2895 20.9299ZM21.0658 9.53994C14.7369 9.53994 9.60528 14.6399 9.60528 20.9299C9.60528 27.2199 14.7369 32.3199 21.0658 32.3199C27.3948 32.3199 32.5263 27.2199 32.5263 20.9299C32.5263 14.6399 27.3948 9.53994 21.0658 9.53994ZM21.0658 24.6699C19.0132 24.6699 17.3027 22.9699 17.3027 20.9299C17.3027 18.8899 19.0132 17.1899 21.0658 17.1899C23.1184 17.1899 24.829 18.8899 24.829 20.9299C24.829 22.9699 23.1184 24.6699 21.0658 24.6699Z" fill="#BD1D1D"/>
<path d="M50.3158 49.9999C57.8734 49.9999 64 43.911 64 36.3999C64 28.8889 57.8734 22.7999 50.3158 22.7999C42.7582 22.7999 36.6316 28.8889 36.6316 36.3999C36.6316 43.911 42.7582 49.9999 50.3158 49.9999Z" fill="white"/>
<path d="M58.3553 28.41C53.9079 23.99 46.7237 23.99 42.2763 28.41C37.829 32.83 37.829 39.97 42.2763 44.39C46.7237 48.81 53.9079 48.81 58.3553 44.39C60.579 42.18 61.7763 39.29 61.7763 36.4C61.7763 33.51 60.579 30.45 58.3553 28.41ZM55.7895 33.17L49.4605 40.48L45.0132 37.08C44.5 36.91 44.5 36.23 44.8421 35.89C45.1842 35.55 45.6974 35.38 46.2105 35.72L49.2895 38.1L54.4211 32.15C54.7632 31.81 55.2763 31.64 55.7895 31.98C56.1316 32.15 56.1316 32.83 55.7895 33.17Z" fill="#76C2B6"/>
</svg>
