<svg width="195" height="16" viewBox="0 0 195 16" fill="none" xmlns="http://www.w3.org/2000/svg">
<path d="M1.31005 12.6364C1.31005 12.6364 0.997647 13.2121 4.18419 13.303C7.37073 13.3939 30.9886 10.7879 56.9184 9.72728C82.8481 8.66668 107.216 7.45456 130.521 8.66668C153.827 9.8485 164.449 11.5455 164.449 11.5455C164.449 11.5455 174.633 13.3636 177.632 14.1515C180.631 14.9394 181.256 15.394 184.63 14.8485C188.004 14.303 192.378 11.8788 193.752 10.4546C194.44 9.72728 194.689 9.33334 194.689 9.00001C194.689 9.00001 194.689 8.48486 194.252 7.9394C191.315 4.30304 167.573 2.63637 167.573 2.63637C167.573 2.63637 135.895 0.424254 107.278 0.363647C102.217 0.363647 98.0935 0.424254 97.2812 0.424254C95.0944 0.454557 91.6579 0.545465 85.4723 0.757587C76.9748 1.06062 70.4768 1.39395 69.2896 1.45456C43.7348 2.81819 26.4275 4.09092 22.3662 4.42425C21.8664 4.45456 21.4915 4.48486 21.1791 4.51516C17.5552 4.63637 14.6186 4.96971 12.4942 5.27274C10.0574 5.60607 8.55788 5.81819 6.8084 6.39395C5.43381 6.81819 2.68464 7.78789 1.24757 9.54546C0.685241 10.4849 -0.0645339 11.8182 1.31005 12.6364Z" fill="#BC1A1A"/>
</svg>
