<svg width="65" height="52" viewBox="0 0 65 52" fill="none" xmlns="http://www.w3.org/2000/svg">
<path d="M23.973 11.8967C22.9027 11.8967 22.0108 12.78 22.0108 13.84V23.7334H16.1243C15.0541 23.7334 14.1622 24.6167 14.1622 25.6767C14.1622 26.7367 15.0541 27.62 16.1243 27.62H26.1135V13.84C25.9351 12.78 25.0433 11.8967 23.973 11.8967ZM23.973 0.236694C10.773 0.236694 0.248657 10.66 0.248657 23.7334C0.248657 36.8067 10.9514 47.23 23.973 47.23C36.9946 47.23 47.6973 36.63 47.6973 23.7334C47.6973 17.55 45.2 11.5434 40.7405 7.12669C36.2811 2.71003 30.2162 0.236694 23.973 0.236694ZM23.973 41.4C14.1622 41.4 6.13514 33.45 6.13514 23.7334C6.13514 14.0167 14.1622 6.06669 23.973 6.06669C33.7838 6.06669 41.8108 14.0167 41.8108 23.7334C41.8108 33.45 33.7838 41.4 23.973 41.4Z" fill="#BD1D1D"/>
<path d="M50.7297 52.0001C58.611 52.0001 65 45.6724 65 37.8667C65 30.0611 58.611 23.7334 50.7297 23.7334C42.8485 23.7334 36.4595 30.0611 36.4595 37.8667C36.4595 45.6724 42.8485 52.0001 50.7297 52.0001Z" fill="white"/>
<path d="M59.1135 29.5634C54.4757 24.9701 46.9838 24.9701 42.3459 29.5634C37.7081 34.1567 37.7081 41.5767 42.3459 46.1701C46.9838 50.7634 54.4757 50.7634 59.1135 46.1701C61.4324 43.8734 62.6811 40.8701 62.6811 37.8667C62.6811 34.8634 61.4324 31.6834 59.1135 29.5634ZM56.4378 34.5101L49.8378 42.1067L45.2 38.5734C44.6649 38.3967 44.6649 37.6901 45.0216 37.3367C45.3784 36.9834 45.9135 36.8067 46.4486 37.1601L49.6594 39.6334L55.0108 33.4501C55.3676 33.0967 55.9027 32.9201 56.4378 33.2734C56.7946 33.4501 56.7946 34.1567 56.4378 34.5101Z" fill="#76C2B6"/>
</svg>
