<svg width="63" height="50" viewBox="0 0 63 50" fill="none" xmlns="http://www.w3.org/2000/svg">
<path d="M22.579 0.189941C28.4737 0.189941 34.2 2.56994 38.4105 6.81994C42.6211 11.0699 44.979 16.8499 44.979 22.7999C44.979 35.3799 34.8737 45.4099 22.579 45.4099C10.2842 45.4099 0.178955 35.3799 0.178955 22.7999C0.178955 10.2199 10.1158 0.189941 22.579 0.189941ZM31.6737 33.3399C31.6737 32.8299 31.5053 32.4899 31.1684 32.1499L25.9474 25.6899C29.3158 25.1799 30.4947 22.6299 30.4947 19.3999C30.4947 17.3599 30.3263 14.6399 28.8105 13.1099C27.1263 11.4099 25.2737 11.5799 23.0842 11.5799H16.8526C15.8421 11.5799 15.1684 11.7499 15.1684 12.9399V32.8299C15.1684 34.0199 15.6737 34.3599 16.8526 34.3599C18.2 34.3599 19.7158 34.6999 19.7158 32.8299V26.0299H20.7263L26.4526 33.3399C27.1263 34.0199 27.6316 34.1899 28.4737 34.1899H30.4947C31 34.1899 31.6737 34.0199 31.6737 33.3399ZM25.9474 19.2299C25.9474 21.4399 25.6105 22.1199 23.4211 22.1199H19.5474V15.4899C20.5579 15.4899 21.4 15.4899 22.4105 15.4899C23.0842 15.4899 24.4316 15.4899 24.9368 15.8299C25.9474 16.1699 25.9474 18.3799 25.9474 19.2299Z" fill="#BD1D1D"/>
<path d="M49.5263 49.9999C56.9676 49.9999 63 43.911 63 36.3999C63 28.8889 56.9676 22.7999 49.5263 22.7999C42.085 22.7999 36.0526 28.8889 36.0526 36.3999C36.0526 43.911 42.085 49.9999 49.5263 49.9999Z" fill="white"/>
<path d="M57.4421 28.41C53.0631 23.99 45.9895 23.99 41.6105 28.41C37.2316 32.83 37.2316 39.97 41.6105 44.39C45.9895 48.81 53.0631 48.81 57.4421 44.39C59.6316 42.18 60.8105 39.29 60.8105 36.4C60.8105 33.51 59.6316 30.45 57.4421 28.41ZM54.9158 33.17L48.6842 40.48L44.3052 37.08C43.8 36.91 43.8 36.23 44.1368 35.89C44.4737 35.55 44.9789 35.38 45.4842 35.72L48.5158 38.1L53.5684 32.15C53.9052 31.81 54.4105 31.64 54.9158 31.98C55.2526 32.15 55.2526 32.83 54.9158 33.17Z" fill="#76C2B6"/>
</svg>
