<svg width="64" height="58" viewBox="0 0 64 58" fill="none" xmlns="http://www.w3.org/2000/svg">
<path d="M30.9091 0.376709H9.04545C4.12121 0.376709 0.378784 4.31004 0.378784 9.03004V44.0367C0.378784 48.9534 4.31818 52.69 9.04545 52.69H30.9091C35.8333 52.69 39.5758 48.7567 39.5758 44.0367V9.03004C39.7727 4.31004 35.8333 0.376709 30.9091 0.376709ZM24.4091 48.3634H15.5455C14.3636 48.3634 13.3788 47.38 13.3788 46.2C13.3788 45.02 14.3636 44.0367 15.5455 44.0367H24.2121C25.3939 44.0367 26.3788 45.02 26.3788 46.2C26.3788 47.38 25.5909 48.3634 24.4091 48.3634ZM33.0758 39.71H6.87878V9.03004H33.0758V39.71Z" fill="#BD1D1D"/>
<path d="M48.2424 58C56.9451 58 64 50.9559 64 42.2667C64 33.5774 56.9451 26.5333 48.2424 26.5333C39.5397 26.5333 32.4848 33.5774 32.4848 42.2667C32.4848 50.9559 39.5397 58 48.2424 58Z" fill="white"/>
<path d="M57.5 33.0234C52.3788 27.91 44.106 27.91 38.9848 33.0234C33.8636 38.1367 33.8636 46.3967 38.9848 51.51C44.106 56.6234 52.3788 56.6234 57.5 51.51C60.0606 48.9534 61.4394 45.61 61.4394 42.2667C61.4394 38.9234 60.0606 35.3834 57.5 33.0234ZM54.5454 38.53L47.2576 46.9867L42.1363 43.0534C41.5454 42.8567 41.5454 42.07 41.9394 41.6767C42.3333 41.2834 42.9242 41.0867 43.5151 41.48L47.0606 44.2334L52.9697 37.35C53.3636 36.9567 53.9545 36.76 54.5454 37.1534C54.9394 37.35 54.9394 38.1367 54.5454 38.53Z" fill="#76C2B6"/>
</svg>
