<svg width="43" height="43" viewBox="0 0 43 43" fill="none" xmlns="http://www.w3.org/2000/svg">
<g clip-path="url(#clip0_264_162)">
<path fill-rule="evenodd" clip-rule="evenodd" d="M21.4888 30.4583C16.5643 30.4583 12.5351 26.4271 12.5351 21.5C12.5351 16.5729 16.5643 12.5417 21.4888 12.5417C26.4133 12.5417 30.4425 16.5729 30.4425 21.5C30.4425 26.4271 26.4133 30.4583 21.4888 30.4583ZM0 21.5C0 33.4146 9.58043 43 21.4888 43C33.3972 43 42.9776 33.4146 42.9776 21.5C42.9776 9.58542 33.3972 0 21.4888 0C9.58043 0 0 9.58542 0 21.5Z" fill="url(#paint0_linear_264_162)"/>
<path opacity="0.5" fill-rule="evenodd" clip-rule="evenodd" d="M21.4889 30.4583C16.5644 30.4583 12.5352 26.4271 12.5352 21.5C12.5352 16.5729 16.5644 12.5417 21.4889 12.5417C26.4134 12.5417 30.4426 16.5729 30.4426 21.5C30.4426 26.4271 26.4134 30.4583 21.4889 30.4583ZM21.4889 9.85416C15.0422 9.85416 9.84912 15.05 9.84912 21.5C9.84912 27.95 15.0422 33.1458 21.4889 33.1458C27.9355 33.1458 33.1287 27.95 33.1287 21.5C33.1287 15.05 27.9355 9.85416 21.4889 9.85416Z" fill="url(#paint1_linear_264_162)"/>
</g>
<defs>
<linearGradient id="paint0_linear_264_162" x1="-1.20454" y1="-2.78174" x2="37.6" y2="38.6845" gradientUnits="userSpaceOnUse">
<stop offset="5.38107e-07" stop-color="#DE937B"/>
<stop offset="1" stop-color="#BC1B1B"/>
</linearGradient>
<linearGradient id="paint1_linear_264_162" x1="29.2077" y1="29.1301" x2="13.062" y2="13.1884" gradientUnits="userSpaceOnUse">
<stop offset="5.38107e-07" stop-color="#DE937B"/>
<stop offset="1" stop-color="#BC1B1B"/>
</linearGradient>
<clipPath id="clip0_264_162">
<rect width="42.9776" height="43" fill="white"/>
</clipPath>
</defs>
</svg>
