<svg width="14" height="14" viewBox="0 0 14 14" fill="none" xmlns="http://www.w3.org/2000/svg">
<path d="M1.4669 1.36284H4.52647L5.51248 3.82821L3.92818 4.88441C3.83488 4.94665 3.75839 5.03096 3.7055 5.12986C3.6526 5.22876 3.62493 5.33919 3.62495 5.45134C3.62699 5.5154 3.62495 5.45203 3.62495 5.45203V5.46634C3.6253 5.49681 3.62667 5.52726 3.62904 5.55765C3.63313 5.61352 3.63994 5.68916 3.65289 5.78251C3.67946 5.9665 3.73057 6.21998 3.83006 6.51845C4.03039 7.11809 4.42289 7.89423 5.18744 8.65878C5.95199 9.42333 6.72813 9.81583 7.3271 10.0162C7.62624 10.1157 7.87904 10.1661 8.06439 10.1933C8.16901 10.2079 8.27432 10.217 8.37989 10.2206L8.38874 10.2213H8.3942C8.3942 10.2213 8.47052 10.2172 8.39488 10.2213C8.52139 10.2212 8.64539 10.1859 8.75298 10.1194C8.86057 10.0528 8.94751 9.95762 9.00407 9.84445L9.46062 8.93135L12.4834 9.4356V12.3793C11.0449 12.5872 7.15947 12.7923 4.10671 9.73951C1.05396 6.68676 1.25838 2.80063 1.4669 1.36284ZM5.03753 5.78251L6.26885 4.96209C6.52898 4.78858 6.72153 4.5309 6.81421 4.23226C6.90689 3.93363 6.89406 3.61221 6.77787 3.32191L5.79186 0.856543C5.69068 0.603672 5.51605 0.386919 5.2905 0.234246C5.06495 0.081572 4.79883 -1.82575e-05 4.52647 3.06449e-09H1.43146C0.812056 3.06449e-09 0.229443 0.429975 0.127912 1.10185C-0.10377 2.62959 -0.417904 7.14194 3.14319 10.703C6.70428 14.2641 11.2166 13.9493 12.7444 13.7183C13.4162 13.6161 13.8462 13.0342 13.8462 12.4148V9.4356C13.8463 9.11299 13.7319 8.80082 13.5234 8.55464C13.3149 8.30846 13.0258 8.14423 12.7076 8.09116L9.6848 7.58759C9.39731 7.5396 9.102 7.58505 8.84224 7.71726C8.58248 7.84947 8.37195 8.06148 8.24156 8.32216L8.00579 8.79438C7.92241 8.77385 7.83989 8.74998 7.75843 8.72283C7.33595 8.58246 6.74925 8.29354 6.15097 7.69525C5.55268 7.09697 5.26376 6.51027 5.12339 6.08711C5.08988 5.98708 5.06145 5.88542 5.03821 5.78251H5.03753Z" fill="#BC1A1A"/>
</svg>
