<svg width="126" height="19" viewBox="0 0 126 19" fill="none" xmlns="http://www.w3.org/2000/svg">
<path d="M1.36355 18.0684C1.36355 18.0684 1.2034 18.6674 3.2564 18.6182C5.30941 18.5689 20.2951 14.8706 36.8744 12.6401C53.4536 10.4097 69.0189 8.0947 84.0726 8.29074C99.1241 8.45598 106.065 9.70855 106.065 9.70855C106.065 9.70855 112.734 11.1037 114.716 11.7712C116.698 12.4386 117.131 12.8728 119.26 12.1685C121.388 11.4642 124.027 8.80594 124.81 7.29734C125.2 6.52765 125.333 6.11617 125.309 5.77739C125.309 5.77739 125.273 5.25383 124.954 4.7189C122.812 1.15369 107.445 0.515121 107.445 0.515121C107.445 0.515121 86.944 -0.325112 68.5603 0.885224C65.3098 1.11017 62.6655 1.35506 62.1438 1.39116C60.7414 1.51916 58.5407 1.7643 54.5828 2.25482C49.1464 2.94049 44.9964 3.56809 44.2382 3.68245C27.9211 6.2042 16.8946 8.26698 14.3097 8.78627C13.9908 8.83929 13.7521 8.88675 13.5536 8.93143C11.2346 9.2157 9.37195 9.685 8.02885 10.0874C6.48724 10.5345 5.53904 10.8167 4.45591 11.4796C3.60289 11.9719 1.90539 13.0796 1.10602 14.9298C0.810927 15.9095 0.42315 17.2979 1.36355 18.0684Z" fill="#009CA6"/>
</svg>
