<svg width="184" height="16" viewBox="0 0 184 16" fill="none" xmlns="http://www.w3.org/2000/svg">
<path d="M0.830782 12.6364C0.830782 12.6364 0.536399 13.2121 3.5391 13.303C6.54181 13.3939 28.7971 10.7879 53.2309 9.72728C77.6647 8.66668 100.627 7.45456 122.587 8.66668C144.548 9.8485 154.557 11.5455 154.557 11.5455C154.557 11.5455 164.154 13.3636 166.98 14.1515C169.806 14.9394 170.395 15.394 173.575 14.8485C176.754 14.303 180.875 11.8788 182.171 10.4546C182.818 9.72728 183.054 9.33334 183.054 9.00001C183.054 9.00001 183.054 8.48486 182.642 7.9394C179.874 4.30304 157.501 2.63637 157.501 2.63637C157.501 2.63637 127.651 0.424254 100.685 0.363647C95.9164 0.363647 92.0305 0.424254 91.2651 0.424254C89.2045 0.454557 85.9663 0.545465 80.1375 0.757587C72.1303 1.06062 66.0071 1.39395 64.8885 1.45456C40.808 2.81819 24.4991 4.09092 20.6722 4.42425C20.2012 4.45456 19.8479 4.48486 19.5535 4.51516C16.1387 4.63637 13.3715 4.96971 11.3697 5.27274C9.0735 5.60607 7.66046 5.81819 6.01192 6.39395C4.71663 6.81819 2.12607 7.78789 0.771905 9.54546C0.242016 10.4849 -0.464502 11.8182 0.830782 12.6364Z" fill="#009CA6"/>
</svg>
