<svg width="270" height="29" viewBox="0 0 270 29" fill="none" xmlns="http://www.w3.org/2000/svg">
<path d="M1.50617 24.1225C1.50617 24.1225 1.07361 25.2076 5.48574 25.3789C9.89788 25.5503 42.5996 20.6389 78.5023 18.64C114.405 16.6412 148.145 14.3568 180.414 16.6412C212.683 18.8685 227.39 22.0666 227.39 22.0666C227.39 22.0666 241.492 25.4932 245.644 26.978C249.797 28.4629 250.662 29.3195 255.334 28.2915C260.005 27.2636 266.061 22.6948 267.965 20.0106C268.916 18.64 269.262 17.8976 269.262 17.2694C269.262 17.2694 269.262 16.2985 268.657 15.2706C264.591 8.41741 231.716 5.27638 231.716 5.27638C231.716 5.27638 187.854 1.10738 148.231 0.993164C141.224 0.993164 135.514 1.10738 134.389 1.10738C131.361 1.16449 126.603 1.33582 118.038 1.73559C106.273 2.30668 97.2755 2.93489 95.6317 3.04911C60.2481 5.61904 36.2842 8.01764 30.6609 8.64584C29.9688 8.70295 29.4497 8.76006 29.0171 8.81717C23.9994 9.04561 19.9333 9.67382 16.9919 10.2449C13.6179 10.8731 11.5416 11.2729 9.11927 12.358C7.21599 13.1575 3.40945 14.985 1.41966 18.2974C0.641046 20.0678 -0.397103 22.5806 1.50617 24.1225Z" fill="#BC1A1A"/>
</svg>
