<svg width="301" height="34" viewBox="0 0 301 34" fill="none" xmlns="http://www.w3.org/2000/svg">
<path d="M1.82459 27.8568C1.82459 27.8568 1.34247 29.119 6.26016 29.3183C11.1779 29.5176 47.6266 23.8043 87.6432 21.4791C127.66 19.154 165.266 16.4966 201.232 19.154C237.199 21.7449 253.591 25.4652 253.591 25.4652C253.591 25.4652 269.309 29.4512 273.937 31.1784C278.565 32.9057 279.53 33.9022 284.737 32.7064C289.944 31.5106 296.693 26.1959 298.815 23.0735C299.875 21.4791 300.261 20.6155 300.261 19.8847C300.261 19.8847 300.261 18.7554 299.586 17.5596C295.054 9.58754 258.412 5.93369 258.412 5.93369C258.412 5.93369 209.525 1.08404 165.362 0.951172C157.552 0.951172 151.187 1.08404 149.934 1.08404C146.559 1.15047 141.256 1.34977 131.71 1.81481C118.596 2.47914 108.567 3.20991 106.735 3.34278C67.2974 6.33229 40.5876 9.1225 34.3199 9.85327C33.5485 9.9197 32.97 9.98614 32.4879 10.0526C26.8952 10.3183 22.3632 11.0491 19.0847 11.7134C15.3241 12.4442 13.0099 12.9092 10.31 14.1715C8.18867 15.1015 3.94595 17.2274 1.72817 21.0805C0.86034 23.14 -0.296764 26.0631 1.82459 27.8568Z" fill="#009CA6"/>
</svg>
