<svg width="551" height="486" viewBox="0 0 551 486" fill="none" xmlns="http://www.w3.org/2000/svg">
<path fill-rule="evenodd" clip-rule="evenodd" d="M463.203 267.29H461.038L472.302 256.03V258.194L463.203 267.29Z" fill="#BC1A1A"/>
<path fill-rule="evenodd" clip-rule="evenodd" d="M472.302 226.008V228.172L433.166 267.29H431.001L472.302 226.008Z" fill="#BC1A1A"/>
<path fill-rule="evenodd" clip-rule="evenodd" d="M472.302 246.022V248.186L453.191 267.289H451.025L472.302 246.022Z" fill="#BC1A1A"/>
<path fill-rule="evenodd" clip-rule="evenodd" d="M472.302 217.494V218.164L423.154 267.29H422.483V265.795L470.808 217.494H472.302Z" fill="#BC1A1A"/>
<path fill-rule="evenodd" clip-rule="evenodd" d="M472.302 236.015V238.179L443.178 267.289H441.014L472.302 236.015Z" fill="#BC1A1A"/>
<path fill-rule="evenodd" clip-rule="evenodd" d="M440.769 217.494H442.935L422.483 237.935V235.772L440.769 217.494Z" fill="#BC1A1A"/>
<path fill-rule="evenodd" clip-rule="evenodd" d="M430.756 217.494H432.921L422.483 227.927V225.763L430.756 217.494Z" fill="#BC1A1A"/>
<path fill-rule="evenodd" clip-rule="evenodd" d="M460.795 217.494H462.959L422.483 257.952V255.787L460.795 217.494Z" fill="#BC1A1A"/>
<path fill-rule="evenodd" clip-rule="evenodd" d="M450.782 217.494H452.947L422.483 247.944V245.779L450.782 217.494Z" fill="#BC1A1A"/>
<path fill-rule="evenodd" clip-rule="evenodd" d="M271.789 230.554H270.758L276.115 225.201V226.229L271.789 230.554Z" fill="#009CA6"/>
<path fill-rule="evenodd" clip-rule="evenodd" d="M276.115 210.928V211.957L257.508 230.554H256.478L276.115 210.928Z" fill="#009CA6"/>
<path fill-rule="evenodd" clip-rule="evenodd" d="M276.115 220.443V221.472L267.028 230.554H265.998L276.115 220.443Z" fill="#009CA6"/>
<path fill-rule="evenodd" clip-rule="evenodd" d="M276.115 206.88V207.199L252.747 230.554H252.429V229.844L275.403 206.88H276.115Z" fill="#009CA6"/>
<path fill-rule="evenodd" clip-rule="evenodd" d="M276.115 215.686V216.715L262.268 230.554H261.238L276.115 215.686Z" fill="#009CA6"/>
<path fill-rule="evenodd" clip-rule="evenodd" d="M261.122 206.88H262.152L252.429 216.598V215.569L261.122 206.88Z" fill="#009CA6"/>
<path fill-rule="evenodd" clip-rule="evenodd" d="M256.362 206.88H257.391L252.429 211.84V210.811L256.362 206.88Z" fill="#009CA6"/>
<path fill-rule="evenodd" clip-rule="evenodd" d="M270.643 206.88H271.672L252.429 226.114V225.086L270.643 206.88Z" fill="#009CA6"/>
<path fill-rule="evenodd" clip-rule="evenodd" d="M265.883 206.88H266.912L252.429 221.357V220.327L265.883 206.88Z" fill="#009CA6"/>
<path d="M482.331 69.4599V138.077H413.683V69.4599H482.331Z" fill="#009CA6"/>
<path d="M550.98 206.693V275.31H482.331V206.693H550.98Z" fill="#575656"/>
<path d="M320.562 18.513V43.8169H295.245V18.513H320.562Z" fill="#FDE9D1"/>
<path d="M507.647 44.1553V69.4604H482.33V44.1553H507.647Z" fill="#BC1A1A"/>
<path d="M482.331 138.076V206.693H413.682V138.076H482.331Z" fill="#009CA6"/>
<path d="M345.033 138.077V206.693H276.384V138.077H345.033Z" fill="#BC1A1A"/>
<path d="M322.504 160.595V184.175H298.914V160.595H322.504Z" fill="#009CA6"/>
<path d="M345.033 138.077V69.46L413.682 69.46V138.077H345.033Z" fill="#575656"/>
<path d="M345.033 275.311V206.693H413.682V275.311H345.033Z" fill="#FDE9D1"/>
<path d="M345.033 206.694V138.077H413.682V206.694H345.033Z" fill="#D6B36A"/>
<path d="M345.034 69.4605V0.843262L413.682 0.843262V69.4605L345.034 69.4605Z" fill="#BC1A1A"/>
<path fill-rule="evenodd" clip-rule="evenodd" d="M482.33 138.076L413.682 206.694V138.076H482.33Z" fill="#BC1A1A"/>
<path fill-rule="evenodd" clip-rule="evenodd" d="M345.033 206.686V174.904C365.265 174.758 381.623 158.332 381.623 138.076L413.413 138.076C413.413 175.881 382.822 206.54 345.033 206.686Z" fill="#D8D9D9"/>
<path d="M276.385 138.077V69.46L345.033 69.46V138.077H276.385Z" fill="#FDE9D1"/>
<path fill-rule="evenodd" clip-rule="evenodd" d="M345.033 101.248C344.943 101.248 344.855 101.235 344.763 101.235C324.407 101.235 307.903 117.73 307.903 138.077H276.384V132.173C279.383 97.0435 308.841 69.4614 344.763 69.4614C344.854 69.4614 344.943 69.4682 345.033 69.4682V101.248Z" fill="#009CA6"/>
<path fill-rule="evenodd" clip-rule="evenodd" d="M503.997 159.732H529.313L503.997 185.036V159.732Z" fill="#009CA6"/>
<path fill-rule="evenodd" clip-rule="evenodd" d="M366.564 225.283H391.881L366.564 250.587V225.283Z" fill="#575656"/>
<path fill-rule="evenodd" clip-rule="evenodd" d="M276.385 138.076H207.736L276.385 69.46V138.076Z" fill="#D6B36A"/>
<path fill-rule="evenodd" clip-rule="evenodd" d="M550.98 138.076H482.33L550.98 69.46V138.076Z" fill="#D6B36A"/>
<path fill-rule="evenodd" clip-rule="evenodd" d="M62.0873 202.742C62.0873 203.571 61.4144 204.244 60.5854 204.244C59.7554 204.244 59.0833 203.571 59.0833 202.742C59.0833 201.912 59.7554 201.24 60.5854 201.24C61.4144 201.239 62.0873 201.912 62.0873 202.742Z" fill="#BC1A1A"/>
<path fill-rule="evenodd" clip-rule="evenodd" d="M77.1472 202.742C77.1472 203.571 76.4744 204.244 75.644 204.244C74.814 204.244 74.1419 203.571 74.1419 202.742C74.1419 201.912 74.8148 201.24 75.644 201.24C76.4741 201.239 77.1472 201.912 77.1472 202.742Z" fill="#BC1A1A"/>
<path fill-rule="evenodd" clip-rule="evenodd" d="M92.2059 202.742C92.2059 203.571 91.533 204.244 90.7038 204.244C89.8737 204.244 89.2017 203.571 89.2017 202.742C89.2017 201.912 89.8737 201.24 90.7038 201.24C91.533 201.239 92.2059 201.912 92.2059 202.742Z" fill="#BC1A1A"/>
<path fill-rule="evenodd" clip-rule="evenodd" d="M107.266 202.742C107.266 203.571 106.593 204.244 105.762 204.244C104.932 204.244 104.26 203.571 104.26 202.742C104.26 201.912 104.933 201.24 105.762 201.24C106.593 201.239 107.266 201.912 107.266 202.742Z" fill="#BC1A1A"/>
<path fill-rule="evenodd" clip-rule="evenodd" d="M62.0873 216C62.0873 216.83 61.4144 217.502 60.5854 217.502C59.7554 217.502 59.0833 216.829 59.0833 216C59.0833 215.171 59.7554 214.498 60.5854 214.498C61.4144 214.499 62.0873 215.171 62.0873 216Z" fill="#BC1A1A"/>
<path fill-rule="evenodd" clip-rule="evenodd" d="M77.1472 216C77.1472 216.83 76.4744 217.502 75.644 217.502C74.814 217.502 74.1419 216.829 74.1419 216C74.1419 215.171 74.8148 214.498 75.644 214.498C76.4741 214.499 77.1472 215.171 77.1472 216Z" fill="#BC1A1A"/>
<path fill-rule="evenodd" clip-rule="evenodd" d="M92.2059 216C92.2059 216.83 91.533 217.502 90.7038 217.502C89.8737 217.502 89.2017 216.829 89.2017 216C89.2017 215.171 89.8737 214.498 90.7038 214.498C91.533 214.499 92.2059 215.171 92.2059 216Z" fill="#BC1A1A"/>
<path fill-rule="evenodd" clip-rule="evenodd" d="M107.266 216C107.266 216.83 106.593 217.502 105.762 217.502C104.932 217.502 104.26 216.829 104.26 216C104.26 215.171 104.933 214.498 105.762 214.498C106.593 214.499 107.266 215.171 107.266 216Z" fill="#BC1A1A"/>
<path fill-rule="evenodd" clip-rule="evenodd" d="M62.0873 229.26C62.0873 230.089 61.4144 230.762 60.5854 230.762C59.7554 230.762 59.0833 230.09 59.0833 229.26C59.0833 228.43 59.7554 227.758 60.5854 227.758C61.4144 227.757 62.0873 228.43 62.0873 229.26Z" fill="#BC1A1A"/>
<path fill-rule="evenodd" clip-rule="evenodd" d="M77.1472 229.26C77.1472 230.089 76.4744 230.762 75.644 230.762C74.814 230.762 74.1419 230.09 74.1419 229.26C74.1419 228.43 74.8148 227.758 75.644 227.758C76.4741 227.757 77.1472 228.43 77.1472 229.26Z" fill="#BC1A1A"/>
<path fill-rule="evenodd" clip-rule="evenodd" d="M62.0873 242.518C62.0873 243.348 61.4144 244.02 60.5854 244.02C59.7554 244.02 59.0833 243.348 59.0833 242.518C59.0833 241.688 59.7554 241.017 60.5854 241.017C61.4144 241.015 62.0873 241.688 62.0873 242.518Z" fill="#BC1A1A"/>
<path fill-rule="evenodd" clip-rule="evenodd" d="M77.1472 242.518C77.1472 243.348 76.4744 244.02 75.644 244.02C74.814 244.02 74.1419 243.348 74.1419 242.518C74.1419 241.688 74.8148 241.017 75.644 241.017C76.4741 241.015 77.1472 241.688 77.1472 242.518Z" fill="#BC1A1A"/>
<path fill-rule="evenodd" clip-rule="evenodd" d="M256.287 477.001H254.121L265.386 465.741V467.906L256.287 477.001Z" fill="#D8D9D9"/>
<path fill-rule="evenodd" clip-rule="evenodd" d="M265.386 435.718V437.883L226.25 477.001H224.084L265.386 435.718Z" fill="#D8D9D9"/>
<path fill-rule="evenodd" clip-rule="evenodd" d="M265.386 455.733V457.898L246.275 477.001H244.108L265.386 455.733Z" fill="#D8D9D9"/>
<path fill-rule="evenodd" clip-rule="evenodd" d="M265.386 427.205V427.875L216.237 477.001H215.567V475.506L263.891 427.205H265.386Z" fill="#D8D9D9"/>
<path fill-rule="evenodd" clip-rule="evenodd" d="M265.386 445.727V447.89L236.262 477.001H234.098L265.386 445.727Z" fill="#D8D9D9"/>
<path fill-rule="evenodd" clip-rule="evenodd" d="M233.852 427.205H236.018L215.567 447.647V445.483L233.852 427.205Z" fill="#D8D9D9"/>
<path fill-rule="evenodd" clip-rule="evenodd" d="M223.84 427.205H226.005L215.567 437.638V435.474L223.84 427.205Z" fill="#D8D9D9"/>
<path fill-rule="evenodd" clip-rule="evenodd" d="M253.878 427.205H256.043L215.567 467.663V465.498L253.878 427.205Z" fill="#D8D9D9"/>
<path fill-rule="evenodd" clip-rule="evenodd" d="M243.866 427.205H246.031L215.567 457.655V455.49L243.866 427.205Z" fill="#D8D9D9"/>
<path fill-rule="evenodd" clip-rule="evenodd" d="M64.8723 440.266H63.8422L69.1984 434.913V435.942L64.8723 440.266Z" fill="#009CA6"/>
<path fill-rule="evenodd" clip-rule="evenodd" d="M69.1984 420.639V421.667L50.5916 440.266H49.562L69.1984 420.639Z" fill="#009CA6"/>
<path fill-rule="evenodd" clip-rule="evenodd" d="M69.1984 430.154V431.184L60.1121 440.266H59.082L69.1984 430.154Z" fill="#009CA6"/>
<path fill-rule="evenodd" clip-rule="evenodd" d="M69.1985 416.591V416.91L45.8306 440.266H45.5127V439.556L68.4873 416.591H69.1985Z" fill="#009CA6"/>
<path fill-rule="evenodd" clip-rule="evenodd" d="M69.1984 425.396V426.426L55.3518 440.266H54.323L69.1984 425.396Z" fill="#009CA6"/>
<path fill-rule="evenodd" clip-rule="evenodd" d="M54.2059 416.591H55.236L45.5127 426.31V425.281L54.2059 416.591Z" fill="#009CA6"/>
<path fill-rule="evenodd" clip-rule="evenodd" d="M49.4456 416.591H50.475L45.5127 421.551V420.523L49.4456 416.591Z" fill="#009CA6"/>
<path fill-rule="evenodd" clip-rule="evenodd" d="M63.7272 416.591H64.7562L45.5126 435.826V434.797L63.7272 416.591Z" fill="#009CA6"/>
<path fill-rule="evenodd" clip-rule="evenodd" d="M58.967 416.591H59.9957L45.5126 431.068V430.038L58.967 416.591Z" fill="#009CA6"/>
<path d="M275.414 279.172V347.788H206.765V279.172H275.414Z" fill="#009CA6"/>
<path d="M344.064 416.405V485.022H275.415V416.405H344.064Z" fill="#575656"/>
<path d="M113.646 228.224V253.528H88.3299V228.224H113.646Z" fill="#FDE9D1"/>
<path d="M300.731 253.866V279.171H275.414V253.866H300.731Z" fill="#BC1A1A"/>
<path d="M275.414 347.788V416.405H206.765V347.788H275.414Z" fill="#009CA6"/>
<path d="M138.117 347.788V416.405H69.4684V347.788H138.117Z" fill="#BC1A1A"/>
<path d="M115.587 370.308V393.886H91.9969V370.308H115.587Z" fill="#009CA6"/>
<path d="M138.117 347.788V279.171H206.766V347.788H138.117Z" fill="#575656"/>
<path d="M138.117 485.023V416.405H206.766V485.023H138.117Z" fill="#FDE9D1"/>
<path d="M138.117 416.405V347.788H206.766V416.405H138.117Z" fill="#D6B36A"/>
<path d="M138.117 279.172V210.555H206.766V279.172H138.117Z" fill="#BC1A1A"/>
<path fill-rule="evenodd" clip-rule="evenodd" d="M275.414 347.788L206.766 416.404V347.788H275.414Z" fill="#BC1A1A"/>
<path fill-rule="evenodd" clip-rule="evenodd" d="M138.117 416.398V384.616C158.349 384.469 174.707 368.044 174.707 347.788H206.496C206.495 385.594 175.906 416.252 138.117 416.398Z" fill="#D8D9D9"/>
<path d="M69.4686 347.788L69.4686 279.171H138.117V347.788H69.4686Z" fill="#FDE9D1"/>
<path fill-rule="evenodd" clip-rule="evenodd" d="M138.117 310.96C138.026 310.959 137.938 310.946 137.847 310.946C117.49 310.946 100.987 327.441 100.987 347.788H69.4675V341.884C72.4649 306.754 101.924 279.172 137.846 279.172C137.937 279.172 138.025 279.179 138.116 279.179V310.96H138.117Z" fill="#009CA6"/>
<path fill-rule="evenodd" clip-rule="evenodd" d="M297.08 369.444H322.397L297.08 394.749V369.444Z" fill="#009CA6"/>
<path fill-rule="evenodd" clip-rule="evenodd" d="M159.648 434.994H184.965L159.648 460.299V434.994Z" fill="#575656"/>
<path fill-rule="evenodd" clip-rule="evenodd" d="M69.4684 347.788H0.818832L69.4684 279.171V347.788Z" fill="#D6B36A"/>
<path fill-rule="evenodd" clip-rule="evenodd" d="M137.741 107.281H206.39L137.741 175.898V107.281Z" fill="#D8D9D9"/>
<path fill-rule="evenodd" clip-rule="evenodd" d="M137.371 67.9282H164.302L137.371 94.8467V67.9282Z" fill="#BC1A1A"/>
<path fill-rule="evenodd" clip-rule="evenodd" d="M344.064 347.788H275.414L344.064 279.171V347.788Z" fill="#D8D9D9"/>
</svg>
