<svg width="22" height="18" viewBox="0 0 22 18" fill="none" xmlns="http://www.w3.org/2000/svg">
<path d="M0 2.2C0 1.61652 0.231785 1.05694 0.644365 0.644365C1.05694 0.231785 1.61652 0 2.2 0H19.8C20.3835 0 20.9431 0.231785 21.3556 0.644365C21.7682 1.05694 22 1.61652 22 2.2V15.4C22 15.9835 21.7682 16.5431 21.3556 16.9556C20.9431 17.3682 20.3835 17.6 19.8 17.6H2.2C1.61652 17.6 1.05694 17.3682 0.644365 16.9556C0.231785 16.5431 0 15.9835 0 15.4V2.2ZM3.8709 2.2L11 8.4381L18.1291 2.2H3.872H3.8709ZM19.8 3.6619L11.7249 10.7283C11.5243 10.9041 11.2667 11.0009 11 11.0009C10.7333 11.0009 10.4757 10.9041 10.2751 10.7283L2.2 3.6619V15.4H19.8V3.6619Z" fill="#BC1A1A"/>
</svg>
