<svg width="119" height="16" viewBox="0 0 119 16" fill="none" xmlns="http://www.w3.org/2000/svg">
<path d="M1.03393 12.6364C1.03393 12.6364 0.844688 13.2121 2.775 13.303C4.70531 13.3939 19.0123 10.7879 34.7197 9.72728C50.4271 8.66668 65.1883 7.45456 79.3061 8.66668C93.4238 9.8485 99.8582 11.5455 99.8582 11.5455C99.8582 11.5455 106.028 13.3636 107.844 14.1515C109.661 14.9394 110.04 15.394 112.083 14.8485C114.127 14.303 116.777 11.8788 117.609 10.4546C118.026 9.72728 118.177 9.33334 118.177 9.00001C118.177 9.00001 118.177 8.48486 117.912 7.9394C116.133 4.30304 101.751 2.63637 101.751 2.63637C101.751 2.63637 82.5611 0.424254 65.2262 0.363647C62.1604 0.363647 59.6623 0.424254 59.1703 0.424254C57.8456 0.454557 55.7639 0.545465 52.0168 0.757587C46.8693 1.06062 42.933 1.39395 42.2139 1.45456C26.7335 2.81819 16.2493 4.09092 13.7891 4.42425C13.4863 4.45456 13.2592 4.48486 13.07 4.51516C10.8747 4.63637 9.09581 4.96971 7.80894 5.27274C6.33282 5.60607 5.42444 5.81819 4.36466 6.39395C3.53198 6.81819 1.86662 7.78789 0.996085 9.54546C0.655442 10.4849 0.201252 11.8182 1.03393 12.6364Z" fill="white"/>
</svg>
