<svg width="158" height="16" viewBox="0 0 158 16" fill="none" xmlns="http://www.w3.org/2000/svg">
<path d="M0.752117 12.6364C0.752117 12.6364 0.498286 13.2121 3.08735 13.303C5.67642 13.3939 24.866 10.7879 45.9339 9.72728C67.0017 8.66668 86.8005 7.45456 105.736 8.66668C124.672 9.8485 133.302 11.5455 133.302 11.5455C133.302 11.5455 141.577 13.3636 144.014 14.1515C146.451 14.9394 146.958 15.394 149.7 14.8485C152.441 14.303 155.995 11.8788 157.111 10.4546C157.67 9.72728 157.873 9.33334 157.873 9.00001C157.873 9.00001 157.873 8.48486 157.518 7.9394C155.132 4.30304 135.84 2.63637 135.84 2.63637C135.84 2.63637 110.102 0.424254 86.8512 0.363647C82.7392 0.363647 79.3886 0.424254 78.7287 0.424254C76.9519 0.454557 74.1597 0.545465 69.1339 0.757587C62.2297 1.06062 56.9501 1.39395 55.9855 1.45456C35.2222 2.81819 21.16 4.09092 17.8603 4.42425C17.4541 4.45456 17.1495 4.48486 16.8957 4.51516C13.9513 4.63637 11.5653 4.96971 9.83923 5.27274C7.85936 5.60607 6.64097 5.81819 5.21952 6.39395C4.10267 6.81819 1.86897 7.78789 0.70135 9.54546C0.244456 10.4849 -0.364735 11.8182 0.752117 12.6364Z" fill="#BC1A1A"/>
</svg>
