<svg width="166" height="16" viewBox="0 0 166 16" fill="none" xmlns="http://www.w3.org/2000/svg">
<path d="M1.07114 12.6364C1.07114 12.6364 0.805296 13.2121 3.51692 13.303C6.22855 13.3939 26.3265 10.7879 48.3917 9.72727C70.4568 8.66666 91.1928 7.45454 111.025 8.66666C130.857 9.84848 139.896 11.5455 139.896 11.5455C139.896 11.5455 148.562 13.3636 151.114 14.1515C153.667 14.9394 154.198 15.3939 157.069 14.8485C159.94 14.303 163.662 11.8788 164.832 10.4545C165.417 9.72727 165.63 9.33333 165.63 9C165.63 9 165.63 8.48484 165.257 7.93939C162.758 4.30303 142.554 2.63636 142.554 2.63636C142.554 2.63636 115.597 0.424238 91.246 0.363632C86.9393 0.363632 83.4301 0.424238 82.7389 0.424238C80.878 0.454542 77.9537 0.54545 72.6899 0.757571C65.4589 1.0606 59.9294 1.39394 58.9191 1.45454C37.173 2.81818 22.4451 4.09091 18.9891 4.42424C18.5638 4.45454 18.2448 4.48484 17.9789 4.51515C14.8951 4.63636 12.3962 4.96969 10.5884 5.27272C8.51482 5.60606 7.23876 5.81818 5.75002 6.39394C4.5803 6.81818 2.24086 7.78787 1.01797 9.54545C0.539451 10.4848 -0.0985782 11.8182 1.07114 12.6364Z" fill="white"/>
</svg>
