<svg width="25" height="31" viewBox="0 0 25 31" fill="none" xmlns="http://www.w3.org/2000/svg">
<path d="M19.118 0H0V31H24.284V5.16602L19.118 0Z" fill="#F5F5F5"/>
<path d="M20.1597 15.3304C19.7872 14.6665 18.5001 14.4579 17.9096 14.364C17.4442 14.29 16.9691 14.2679 16.4983 14.2683C16.1287 14.2659 15.7645 14.2841 15.405 14.3045C15.2725 14.3134 15.1413 14.3249 15.0102 14.3362C14.8759 14.1972 14.746 14.0535 14.6203 13.9066C13.8208 12.9601 13.1752 11.8867 12.6491 10.7713C12.7888 10.2323 12.9005 9.66987 12.968 9.08574C13.0912 8.01961 13.1336 6.80461 12.7341 5.78818C12.5962 5.43737 12.2284 5.01028 11.8041 5.22296C11.3162 5.46753 11.179 6.16046 11.1392 6.65165C11.1072 7.04868 11.1296 7.44672 11.1963 7.8371C11.2642 8.23014 11.3735 8.60334 11.4925 8.97603C11.6035 9.31774 11.7259 9.65679 11.8594 9.99267C11.7747 10.2571 11.6848 10.5169 11.5905 10.77C11.3704 11.347 11.1325 11.8952 10.9037 12.4225C10.783 12.6839 10.6649 12.9398 10.5494 13.19C10.1838 13.9932 9.78683 14.7816 9.34134 15.5437C8.3022 15.9103 7.36971 16.3352 6.5953 16.8346C6.17987 17.103 5.8129 17.3945 5.50729 17.7142C5.21875 18.0161 4.9255 18.4078 4.89984 18.8414C4.88542 19.0862 4.98235 19.3237 5.18286 19.4689C5.45862 19.6749 5.82405 19.6612 6.14398 19.5942C7.19201 19.3743 7.99679 18.4734 8.68215 17.7141C9.15423 17.1911 9.69153 16.5271 10.2536 15.7239C10.2548 15.7221 10.256 15.7202 10.2574 15.7184C11.2214 15.4195 12.2705 15.1672 13.384 14.9817C13.8926 14.8973 14.4148 14.8283 14.9474 14.7799C15.322 15.1307 15.7267 15.4501 16.1682 15.7169C16.512 15.9284 16.8777 16.107 17.2606 16.2403C17.6477 16.3667 18.0371 16.47 18.4393 16.5353C18.6423 16.5644 18.85 16.5776 19.0621 16.5696C19.5357 16.5517 20.2153 16.3701 20.2599 15.7956C20.2736 15.6197 20.2356 15.4655 20.1597 15.3304ZM8.82366 16.3845C8.60189 16.7281 8.38799 17.0371 8.18646 17.3089C7.69292 17.9805 7.12923 18.7781 6.31309 19.0764C6.15809 19.133 5.954 19.1915 5.73888 19.1788C5.54727 19.1676 5.35831 19.083 5.36701 18.8654C5.3713 18.7515 5.42702 18.6062 5.5125 18.4635C5.60606 18.307 5.7219 18.1634 5.84736 18.0314C6.11617 17.749 6.45604 17.4753 6.84703 17.2218C7.4467 16.8328 8.16264 16.4826 8.96067 16.1701C8.91476 16.2427 8.86896 16.3149 8.82366 16.3845ZM11.607 7.76921C11.5455 7.40991 11.5362 7.04561 11.574 6.69531C11.5928 6.52016 11.6285 6.34921 11.6801 6.18898C11.7239 6.053 11.8184 5.7211 11.9691 5.67847C12.2175 5.60812 12.2939 6.14154 12.322 6.29246C12.4822 7.15092 12.3411 8.1056 12.1489 8.94771C12.1184 9.08165 12.0843 9.21344 12.0494 9.34473C11.9899 9.18103 11.9332 9.01682 11.8809 8.8518C11.7685 8.49138 11.6656 8.12677 11.607 7.76921ZM13.3128 14.5461C12.3793 14.6974 11.4913 14.8957 10.6565 15.1298C10.757 15.1016 11.2163 14.2312 11.3188 14.0505C11.8015 13.2004 12.1964 12.308 12.4801 11.372C12.9811 12.3628 13.5892 13.3108 14.3362 14.1545C14.405 14.2311 14.4749 14.3068 14.5461 14.3815C14.1275 14.4266 13.7156 14.4815 13.3128 14.5461ZM19.6259 15.7418C19.5918 15.9264 19.1976 16.0319 19.0137 16.0609C18.4701 16.1464 17.8951 16.078 17.3749 15.9032C17.0179 15.7834 16.6737 15.6202 16.3466 15.4239C16.0214 15.2275 15.7172 14.9964 15.4329 14.7416C15.7835 14.7206 16.1384 14.7068 16.495 14.7135C16.8517 14.7171 17.2111 14.7351 17.5661 14.7814C18.2318 14.8556 18.9778 15.0841 19.5018 15.5161C19.605 15.6013 19.6379 15.6766 19.6259 15.7418Z" fill="#FB3449"/>
<path d="M19.9175 2.58306H0V0H19.118L19.9175 2.58306Z" fill="#FB3449"/>
<path d="M9.61091 24.657C9.61091 25.2051 9.44936 25.6284 9.12606 25.927C8.80275 26.2256 8.34366 26.3749 7.74859 26.3749H7.3761V28.0024H6.05078V23.0967H7.74869C8.36831 23.0967 8.83363 23.2321 9.14456 23.5027C9.4555 23.7733 9.61091 24.1581 9.61091 24.657ZM7.37621 25.2945H7.61782C7.81689 25.2945 7.97517 25.2386 8.09265 25.1267C8.21013 25.0148 8.26882 24.8604 8.26882 24.6636C8.26882 24.3325 8.08539 24.167 7.71853 24.167H7.37621V25.2945Z" fill="#A4A9AD"/>
<path d="M14.5568 25.4455C14.5568 26.2642 14.3313 26.895 13.8806 27.338C13.4299 27.7809 12.7962 28.0024 11.9798 28.0024H10.3926V23.0967H12.0905C12.8779 23.0967 13.4857 23.298 13.9142 23.7007C14.3425 24.1033 14.5568 24.685 14.5568 25.4455ZM13.1811 25.4925C13.1811 25.0428 13.0921 24.7096 12.9143 24.4926C12.7365 24.2756 12.4663 24.1671 12.1039 24.1671H11.7181V26.9152H12.0134C12.4161 26.9152 12.7113 26.7983 12.8993 26.5645C13.0871 26.3308 13.1811 25.9735 13.1811 25.4925Z" fill="#A4A9AD"/>
<path d="M16.7408 28.0024H15.4355V23.0967H18.3348V24.1604H16.7408V25.0965H18.2105V26.1602H16.7408V28.0024Z" fill="#A4A9AD"/>
<path d="M19.1191 5.16602H24.2852L19.1191 0V5.16602Z" fill="#D1D3D3"/>
</svg>
