<svg width="49" height="43" viewBox="0 0 49 43" fill="none" xmlns="http://www.w3.org/2000/svg">
<g clip-path="url(#clip0_264_172)">
<path fill-rule="evenodd" clip-rule="evenodd" d="M29.9291 29.6521C29.657 30.1 29.0221 30.4583 28.5687 30.4583H20.4969C19.9528 30.4583 19.3179 30.1 19.1365 29.6521L14.7833 22.2167C14.5112 21.7687 14.5112 21.0521 14.7833 20.6937L19.1365 13.2583C19.4086 12.8104 20.0435 12.4521 20.4969 12.4521H28.5687C29.1128 12.4521 29.7477 12.8104 29.9291 13.2583L34.2824 20.6937C34.5544 21.1417 34.5544 21.8583 34.2824 22.2167L29.9291 29.6521ZM13.0601 0C12.5159 0 11.9718 0.358333 11.6997 0.80625L0.181599 20.6937C-0.0904811 21.1417 -0.0904811 21.8583 0.181599 22.2167L11.6997 42.1937C11.9718 42.6417 12.6066 43 13.0601 43H36.0055C36.5497 43 37.0939 42.6417 37.3659 42.1937L48.884 22.2167C49.1561 21.7687 49.1561 21.0521 48.884 20.6937L37.2752 0.80625C37.0032 0.358333 36.3683 0 35.9148 0H13.0601Z" fill="url(#paint0_linear_264_172)"/>
<path opacity="0.5" fill-rule="evenodd" clip-rule="evenodd" d="M31.3802 32.1604C31.0174 32.6979 30.2919 33.1458 29.5663 33.1458H19.318C18.6831 33.1458 17.8669 32.6979 17.5041 32.1604L11.9718 22.575C11.609 22.0375 11.609 21.1417 11.9718 20.5146L17.5041 10.9292C17.8669 10.3917 18.5924 9.94375 19.318 9.94375H29.5663C30.2012 9.94375 31.0174 10.3917 31.3802 10.9292L36.9125 20.5146C37.2753 21.0521 37.2753 21.9479 36.9125 22.575L31.3802 32.1604ZM29.9291 29.6521L34.2824 22.2167C34.5545 21.7687 34.5545 21.0521 34.2824 20.6937L29.9291 13.3479C29.657 12.9 29.0222 12.5417 28.5687 12.5417H20.497C19.9528 12.5417 19.318 12.9 19.1366 13.3479L14.7833 20.7833C14.5112 21.2312 14.5112 21.9479 14.7833 22.3062L19.1366 29.7417C19.4087 30.1896 20.0435 30.5479 20.497 30.5479H28.5687C29.0222 30.4583 29.657 30.1 29.9291 29.6521Z" fill="url(#paint1_linear_264_172)"/>
</g>
<defs>
<linearGradient id="paint0_linear_264_172" x1="-0.197501" y1="1.60963" x2="40.2641" y2="43.9268" gradientUnits="userSpaceOnUse">
<stop offset="5.38107e-07" stop-color="#DE937B"/>
<stop offset="1" stop-color="#BC1B1B"/>
</linearGradient>
<linearGradient id="paint1_linear_264_172" x1="32.1958" y1="29.5167" x2="18.0929" y2="12.0833" gradientUnits="userSpaceOnUse">
<stop offset="5.38107e-07" stop-color="#DE937B"/>
<stop offset="1" stop-color="#BC1B1B"/>
</linearGradient>
<clipPath id="clip0_264_172">
<rect width="48.9745" height="43" fill="white"/>
</clipPath>
</defs>
</svg>
