<svg width="30" height="30" viewBox="0 0 30 30" fill="none" xmlns="http://www.w3.org/2000/svg">
<g clip-path="url(#clip0_766_397)">
<rect width="30" height="30" rx="15" fill="white"/>
<path fill-rule="evenodd" clip-rule="evenodd" d="M100 0H0V100H100V0ZM15.0961 12.3606C13.5873 12.3606 12.3645 13.5833 12.3645 15.0912C12.3645 16.5991 13.5873 17.8218 15.0961 17.8218C16.6049 17.8218 17.8284 16.5991 17.8284 15.0912C17.8284 13.5833 16.6049 12.3606 15.0961 12.3606ZM15.0961 19.2973C12.7717 19.2973 10.8875 17.4142 10.8875 15.0912C10.8875 12.7682 12.7717 10.8851 15.0961 10.8851C17.4205 10.8851 19.3047 12.7682 19.3047 15.0912C19.3047 17.4142 17.4205 19.2973 15.0961 19.2973ZM18.6533 11.2645C18.5453 11.1028 18.4877 10.9127 18.4878 10.7183C18.488 10.4578 18.5917 10.2079 18.7761 10.0237C18.9605 9.83946 19.2106 9.73591 19.4713 9.73579H19.4717C19.6662 9.73587 19.8564 9.79359 20.0181 9.90166C20.1798 10.0097 20.3058 10.1633 20.3801 10.3429C20.4545 10.5226 20.4739 10.7202 20.4359 10.9109C20.3978 11.1015 20.3041 11.2766 20.1665 11.4141C20.0289 11.5515 19.8536 11.645 19.6628 11.6829C19.472 11.7207 19.2743 11.7012 19.0946 11.6267C18.9149 11.5522 18.7613 11.4262 18.6533 11.2645ZM10.2628 21.4768C10.5515 21.5892 10.9858 21.7222 11.7849 21.7586C12.6486 21.7983 12.9074 21.8063 15.0961 21.8063C17.2849 21.8063 17.5444 21.7983 18.4083 21.7586C19.2074 21.7223 19.6419 21.5893 19.9304 21.4768C20.313 21.328 20.5864 21.1504 20.8731 20.8641C21.1598 20.5779 21.3372 20.305 21.4862 19.9226C21.598 19.6342 21.7317 19.2001 21.7681 18.4015C21.8079 17.5373 21.8158 17.2787 21.8158 15.0913C21.8158 12.9038 21.8079 12.6452 21.7681 11.781C21.7318 10.9824 21.5987 10.5482 21.4862 10.2599C21.3372 9.87746 21.1602 9.60421 20.8731 9.31771C20.5861 9.03122 20.313 8.85324 19.9304 8.70501C19.641 8.59361 19.2074 8.4596 18.4083 8.42323C17.5437 8.38418 17.2839 8.37559 15.0961 8.37559C12.9083 8.37559 12.6488 8.38352 11.7849 8.42323C10.9858 8.45954 10.5513 8.59256 10.2628 8.70501C9.87951 8.85324 9.60675 9.03082 9.32008 9.31771C9.03341 9.6046 8.85598 9.87746 8.70701 10.2599C8.59554 10.5491 8.46146 10.9824 8.42507 11.781C8.38599 12.6452 8.3774 12.9038 8.3774 15.0913C8.3774 17.2787 8.38533 17.5381 8.42507 18.4015C8.46139 19.2001 8.59449 19.6343 8.70701 19.9226C8.85533 20.305 9.03302 20.5776 9.32008 20.8641C9.60714 21.1506 9.88017 21.328 10.2628 21.4768ZM9.72759 7.33007C10.2483 7.12758 10.8445 6.98932 11.717 6.94961C12.5914 6.90924 12.871 6.9 15.0968 6.9C17.3226 6.9 17.6019 6.90989 18.4758 6.94961C19.3477 6.98866 19.9436 7.12758 20.4653 7.33007C21.0035 7.53918 21.4611 7.81899 21.9165 8.27487C22.3719 8.73076 22.6521 9.18731 22.8619 9.72589C23.0645 10.2463 23.2028 10.8421 23.2426 11.7141C23.2823 12.5875 23.2915 12.8667 23.2915 15.0912C23.2915 17.3157 23.2823 17.5942 23.2426 18.4683C23.2035 19.3403 23.0645 19.9358 22.8619 20.4565C22.6521 20.9951 22.3727 21.4523 21.9165 21.9075C21.4603 22.3627 21.0035 22.6426 20.4646 22.8523C19.9436 23.0548 19.3478 23.1931 18.4752 23.2328C17.6013 23.2731 17.3219 23.2824 15.0961 23.2824C12.8703 23.2824 12.5914 23.2725 11.717 23.2328C10.8445 23.1931 10.2493 23.0548 9.72759 22.8523C9.18835 22.6426 8.7318 22.3625 8.2757 21.9075C7.8196 21.4525 7.53956 20.9951 7.33033 20.4565C7.12772 19.9358 6.98937 19.3403 6.94964 18.4683C6.90925 17.5949 6.9 17.3157 6.9 15.0912C6.9 12.8667 6.90925 12.5875 6.94964 11.7141C6.98937 10.8421 7.12772 10.2466 7.33033 9.72589C7.53956 9.18698 7.81954 8.73004 8.2757 8.27487C8.73186 7.81971 9.18835 7.53918 9.72759 7.33007Z" fill="#BC1A1A"/>
</g>
<defs>
<clipPath id="clip0_766_397">
<rect width="30" height="30" rx="15" fill="white"/>
</clipPath>
</defs>
</svg>
