<svg width="55" height="55" viewBox="0 0 55 55" fill="none" xmlns="http://www.w3.org/2000/svg">
<path d="M7.0164 16.6025C7.12358 14.2604 7.49029 12.7499 7.98623 11.4677L7.9929 11.45C8.48435 10.1453 9.25423 8.96331 10.249 7.98637L10.2629 7.97266L10.2766 7.95871C11.2544 6.9627 12.4367 6.19358 13.7403 5.70343L13.7628 5.69484C15.0421 5.19734 16.5496 4.83198 18.8936 4.72482M7.0164 16.6025C6.90371 19.1048 6.875 19.8806 6.875 26.3688C6.875 32.8583 6.90213 33.6322 7.01633 36.1352M7.0164 16.6025V17.2337M7.99494 41.2887C8.48508 42.5922 9.25421 43.7744 10.2502 44.7523L10.2641 44.766L10.2778 44.7798C11.2548 45.7746 12.4368 46.5446 13.7415 47.0359L13.761 47.0433C15.0414 47.5399 16.5497 47.9054 18.8936 48.0126M7.99494 41.2887L7.98634 41.266C7.48885 39.9868 7.12349 38.4793 7.01633 36.1352M7.99494 41.2887L7.96556 41.1337M7.01633 36.1352L7.05471 36.3373M7.01633 36.1352V35.5024M7.96556 41.1337L7.05471 36.3373M7.96556 41.1337C7.5787 40.1119 7.18036 38.6858 7.05471 36.3373M7.96556 41.1337C7.97912 41.1697 7.99267 41.205 8.00621 41.2399C8.49679 42.5624 9.27412 43.76 10.2823 44.7463C11.2684 45.7544 12.4655 46.5315 13.7876 47.0222C14.8486 47.4354 16.3436 47.8674 18.8933 47.9842C21.4663 48.1013 22.2613 48.1252 28.6603 48.1252C35.0591 48.1252 35.8547 48.1013 38.4278 47.9842C40.9807 47.8671 42.474 47.4328 43.5311 47.0229C44.8541 46.5325 46.0517 45.7549 47.0381 44.7463C48.0459 43.7602 48.823 42.5633 49.3137 41.2412C49.7269 40.1802 50.1589 38.6853 50.2757 36.1356C50.3928 33.5625 50.4167 32.766 50.4167 26.3688C50.4167 19.9714 50.3928 19.1742 50.2757 16.6011C50.1579 14.0349 49.7198 12.5394 49.308 11.4812C48.7692 10.0909 48.0863 9.03934 47.0365 7.98953C45.9887 6.94389 44.94 6.26052 43.5488 5.7214C42.4866 5.30622 40.9901 4.87066 38.4278 4.75322C38.2048 4.74309 37.9954 4.73365 37.7944 4.72485M7.05471 36.3373C7.05116 36.2711 7.04784 36.2041 7.04472 36.1363C7.03459 35.9133 7.02513 35.7036 7.01633 35.5024M18.8936 4.72482C21.3966 4.61063 22.1721 4.5835 28.6603 4.5835C35.1482 4.5835 35.9235 4.61219 38.4257 4.72485M18.8936 4.72482H19.5265M38.4257 4.72485H37.7944M38.4257 4.72485C40.7683 4.832 42.279 5.19867 43.5611 5.69466L43.5788 5.70139C44.8837 6.19284 46.0655 6.96273 47.0424 7.95745L47.0562 7.97127L47.0699 7.98483C48.0647 8.96184 48.8345 10.1441 49.3256 11.4492L49.3341 11.4713C49.8316 12.7506 50.1969 14.2581 50.3041 16.6021M19.5265 4.72482L37.7944 4.72485M19.5265 4.72482C21.646 4.63215 22.8174 4.61221 28.6603 4.61221C34.5036 4.61221 35.6746 4.63217 37.7944 4.72485M19.5265 4.72482C19.3253 4.73362 19.1156 4.74309 18.8926 4.75322C16.3397 4.87023 14.8465 5.30455 13.7892 5.71462C12.4614 6.20684 11.2597 6.98828 10.2711 8.00234C9.23113 9.04665 8.55039 10.0932 8.013 11.48C7.59777 12.542 7.16215 14.0392 7.0447 16.6018C7.03459 16.8241 7.02515 17.0331 7.0164 17.2337M50.3041 36.1352C50.1969 38.4791 49.8316 39.9875 49.335 41.2678L49.3274 41.2873C48.8361 42.5922 48.0661 43.774 47.0715 44.7509L47.0575 44.7647L47.0438 44.7786C46.0659 45.7746 44.8837 46.5437 43.5802 47.0339L43.5575 47.0426C42.2783 47.5401 40.7708 47.9054 38.4267 48.0126M7.01633 35.5024C6.92365 33.3829 6.90371 32.2114 6.90371 26.3688C6.90371 20.5241 6.92365 19.3543 7.0164 17.2337M7.01633 35.5024L7.0164 17.2337M24.7855 35.7229C26.0141 36.2316 27.3306 36.4936 28.6603 36.4936C31.3454 36.4936 33.9208 35.4268 35.8197 33.5282C37.7183 31.6293 38.7851 29.0539 38.7851 26.3688C38.7851 23.6834 37.7183 21.1081 35.8197 19.2093C33.9208 17.3105 31.3454 16.2437 28.6603 16.2437C27.3306 16.2437 26.0139 16.5056 24.7855 17.0145C23.5572 17.5233 22.441 18.2691 21.5008 19.2093C20.5606 20.1495 19.8148 21.2656 19.306 22.494C18.7971 23.7224 18.5353 25.0391 18.5353 26.3688C18.5353 27.6984 18.7971 29.015 19.306 30.2433C19.8148 31.4719 20.5606 32.5879 21.5008 33.5282C22.441 34.4682 23.5572 35.2141 24.7855 35.7229ZM21.4782 19.1867C23.383 17.2819 25.9664 16.2118 28.6603 16.2118C31.3539 16.2118 33.9373 17.2819 35.8421 19.1867C37.747 21.0915 38.8169 23.6749 38.8169 26.3688C38.8169 29.0624 37.747 31.6458 35.8421 33.5506C33.9373 35.4555 31.3539 36.5254 28.6603 36.5254C25.9664 36.5254 23.383 35.4555 21.4782 33.5506C19.5734 31.6458 18.5034 29.0624 18.5034 26.3688C18.5034 23.6749 19.5734 21.0915 21.4782 19.1867ZM44.5363 13.8471C44.5363 14.6181 44.2301 15.3575 43.6849 15.9027C43.1397 16.4479 42.4002 16.7542 41.6293 16.7542C40.8581 16.7542 40.1188 16.4479 39.5736 15.9027C39.0285 15.3575 38.7221 14.6181 38.7221 13.8471C38.7221 13.0761 39.0285 12.3366 39.5736 11.7915C40.1188 11.2463 40.8581 10.94 41.6293 10.94C42.4002 10.94 43.1397 11.2463 43.6849 11.7915C44.2301 12.3366 44.5363 13.0761 44.5363 13.8471Z" stroke="white" stroke-linejoin="round"/>
</svg>
