<svg width="25" height="32" viewBox="0 0 25 32" fill="none" xmlns="http://www.w3.org/2000/svg">
<path d="M19.8217 0H0.658203V31.0738H25V5.17831L19.8217 0Z" fill="#E8E8E8"/>
<path d="M18.895 6.3241H6.60742V18.6116H18.895V6.3241Z" fill="#004A94"/>
<path d="M17.8295 7.39001H7.67383V17.5454H17.8295V7.39001Z" fill="white"/>
<path d="M10.6188 14.5266L10.8079 14.0349L11.2524 12.9381L12.8362 9.28821H14.4247V13.0327C14.4247 13.5243 14.3837 14.0224 14.3018 14.5267C14.3333 14.4384 14.5429 13.8932 14.9306 12.8908L16.3632 9.28831H18.1928L15.1907 16.2003H13.0113V13.2691C13.0113 12.7807 13.0317 12.27 13.0728 11.7373C12.9686 12.1565 12.7827 12.7065 12.5149 13.3873L11.3187 16.2003H9.26678L9.03516 9.28831H10.7844L10.7371 12.7538C10.7181 13.5953 10.6787 14.1862 10.6188 14.5266Z" fill="#004A94"/>
<path d="M20.6231 2.58921H0.658203V0H19.8217L20.6231 2.58921Z" fill="#004A94"/>
<path d="M9.95146 25.5061C9.95146 26.3268 9.72547 26.9591 9.27369 27.4031C8.82191 27.8471 8.18678 28.0691 7.3683 28.0691H5.77734V23.1517H7.47929C8.26857 23.1517 8.87787 23.3535 9.30731 23.7571C9.73664 24.1607 9.95146 24.7438 9.95146 25.5061ZM8.57245 25.5533C8.57245 25.1025 8.48329 24.7685 8.30506 24.5509C8.12683 24.3334 7.85605 24.2247 7.49272 24.2247H7.10603V26.9793H7.40202C7.80562 26.9793 8.10161 26.8622 8.28989 26.6278C8.47816 26.3936 8.57245 26.0354 8.57245 25.5533Z" fill="#A4A9AD"/>
<path d="M15.4332 25.6037C15.4332 26.4311 15.2303 27.0601 14.8245 27.4907C14.4185 27.9212 13.8244 28.1365 13.0417 28.1365C12.2705 28.1365 11.6789 27.9201 11.2675 27.4874C10.8559 27.0547 10.6504 26.4245 10.6504 25.5971C10.6504 24.7787 10.855 24.1537 11.2641 23.722C11.6732 23.2904 12.2682 23.0746 13.0485 23.0746C13.831 23.0746 14.4241 23.2887 14.8278 23.717C15.2314 24.1452 15.4332 24.7741 15.4332 25.6037ZM12.0496 25.6037C12.0496 26.5544 12.3803 27.0299 13.0417 27.0299C13.3782 27.0299 13.6276 26.9145 13.7902 26.6835C13.9527 26.4526 14.034 26.0926 14.034 25.6038C14.034 25.1128 13.9515 24.7501 13.7868 24.5157C13.6221 24.2814 13.3758 24.1643 13.0486 24.1643C12.3825 24.1642 12.0496 24.644 12.0496 25.6037Z" fill="#A4A9AD"/>
<path d="M18.5119 24.1707C18.1958 24.1707 17.9491 24.3003 17.7719 24.5593C17.5948 24.8182 17.5062 25.1753 17.5062 25.6305C17.5062 26.5768 17.866 27.0499 18.5858 27.0499C18.8033 27.0499 19.0141 27.0196 19.2182 26.9591C19.4222 26.8985 19.6273 26.8256 19.8336 26.7404V27.8638C19.4234 28.0454 18.9592 28.1363 18.4412 28.1363C17.699 28.1363 17.13 27.921 16.7342 27.4905C16.3385 27.0599 16.1406 26.4377 16.1406 25.6237C16.1406 25.1147 16.2365 24.6674 16.4282 24.2817C16.62 23.896 16.8958 23.5995 17.2556 23.3921C17.6156 23.1848 18.0387 23.0809 18.5254 23.0809C19.0569 23.0809 19.5647 23.1964 20.049 23.4273L19.642 24.4734C19.4604 24.3882 19.2788 24.3165 19.0972 24.2581C18.9155 24.1999 18.7205 24.1707 18.5119 24.1707Z" fill="#A4A9AD"/>
<path d="M19.8203 5.17831H24.9986L19.8203 0V5.17831Z" fill="#D1D3D3"/>
</svg>
