<svg width="185" height="16" viewBox="0 0 185 16" fill="none" xmlns="http://www.w3.org/2000/svg">
<path d="M0.909562 12.6364C0.909562 12.6364 0.612175 13.2121 3.64552 13.303C6.67886 13.3939 29.1613 10.7879 53.8444 9.72728C78.5275 8.66668 101.724 7.45456 123.909 8.66668C146.094 9.8485 156.205 11.5455 156.205 11.5455C156.205 11.5455 165.9 13.3636 168.755 14.1515C171.609 14.9394 172.204 15.394 175.416 14.8485C178.628 14.303 182.791 11.8788 184.1 10.4546C184.754 9.72728 184.992 9.33334 184.992 9.00001C184.992 9.00001 184.992 8.48486 184.576 7.9394C181.78 4.30304 159.179 2.63637 159.179 2.63637C159.179 2.63637 129.024 0.424254 101.783 0.363647C96.9654 0.363647 93.0399 0.424254 92.2667 0.424254C90.185 0.454557 86.9138 0.545465 81.0255 0.757587C72.9366 1.06062 66.751 1.39395 65.6209 1.45456C41.2947 2.81819 24.8194 4.09092 20.9534 4.42425C20.4776 4.45456 20.1207 4.48486 19.8233 4.51516C16.3737 4.63637 13.5782 4.96971 11.556 5.27274C9.23639 5.60607 7.80893 5.81819 6.14357 6.39395C4.83506 6.81819 2.21806 7.78789 0.850084 9.54546C0.314788 10.4849 -0.398939 11.8182 0.909562 12.6364Z" fill="#009CA6"/>
</svg>
