<svg width="119" height="16" viewBox="0 0 119 16" fill="none" xmlns="http://www.w3.org/2000/svg">
<path d="M1.03442 12.6364C1.03442 12.6364 0.845177 13.2121 2.77549 13.303C4.7058 13.3939 19.0128 10.7879 34.7202 9.72728C50.4276 8.66668 65.1888 7.45456 79.3066 8.66668C93.4243 9.8485 99.8587 11.5455 99.8587 11.5455C99.8587 11.5455 106.028 13.3636 107.845 14.1515C109.662 14.9394 110.04 15.394 112.084 14.8485C114.128 14.303 116.777 11.8788 117.61 10.4546C118.026 9.72728 118.178 9.33334 118.178 9.00001C118.178 9.00001 118.178 8.48486 117.913 7.9394C116.134 4.30304 101.751 2.63637 101.751 2.63637C101.751 2.63637 82.5616 0.424254 65.2267 0.363647C62.1609 0.363647 59.6628 0.424254 59.1708 0.424254C57.8461 0.454557 55.7644 0.545465 52.0173 0.757587C46.8698 1.06062 42.9335 1.39395 42.2144 1.45456C26.734 2.81819 16.2498 4.09092 13.7896 4.42425C13.4868 4.45456 13.2597 4.48486 13.0705 4.51516C10.8752 4.63637 9.0963 4.96971 7.80943 5.27274C6.33331 5.60607 5.42493 5.81819 4.36515 6.39395C3.53247 6.81819 1.86711 7.78789 0.996574 9.54546C0.655931 10.4849 0.20174 11.8182 1.03442 12.6364Z" fill="#BC1A1A"/>
</svg>
