<svg width="51" height="51" viewBox="0 0 51 51" fill="none" xmlns="http://www.w3.org/2000/svg">
<path d="M46.75 7.375V43.625C46.75 44.4537 46.4208 45.2487 45.8348 45.8348C45.2487 46.4208 44.4537 46.75 43.625 46.75H7.375C6.54619 46.75 5.75133 46.4208 5.1653 45.8348C4.57925 45.2487 4.25 44.4537 4.25 43.625V7.375C4.25 6.54619 4.57925 5.75133 5.1653 5.1653C5.75133 4.57925 6.54619 4.25 7.375 4.25H43.625C44.4537 4.25 45.2487 4.57925 45.8348 5.1653C46.4208 5.75133 46.75 6.54619 46.75 7.375ZM16.75 20.5H10.5V40.4999H16.75V20.5ZM17.3125 13.625C17.3158 13.1522 17.2259 12.6835 17.0481 12.2454C16.8702 11.8074 16.6078 11.4087 16.2758 11.0721C15.9438 10.7355 15.5488 10.4675 15.1133 10.2836C14.6778 10.0996 14.2103 10.0033 13.7375 10H13.625C12.6636 10 11.7416 10.3819 11.0617 11.0617C10.3819 11.7416 10 12.6636 10 13.625C10 14.5864 10.3819 15.5084 11.0617 16.1883C11.7416 16.8681 12.6636 17.25 13.625 17.25C14.0978 17.2616 14.5683 17.18 15.0095 17.0097C15.4507 16.8395 15.8541 16.584 16.1965 16.2578C16.539 15.9316 16.8138 15.5411 17.0053 15.1087C17.1968 14.6762 17.3012 14.2103 17.3125 13.7375V13.625ZM40.4999 28.35C40.4999 22.3376 36.675 20 32.875 20C31.6308 19.9377 30.392 20.2027 29.2823 20.7686C28.1724 21.3344 27.2304 22.1814 26.55 23.225H26.3751V20.5H20.5V40.4999H26.7499V29.8624C26.6596 28.7731 27.0028 27.6919 27.7049 26.8541C28.4072 26.0162 29.4115 25.4892 30.4999 25.3876H30.7375C32.725 25.3876 34.2 26.6375 34.2 29.7874V40.4999H40.45L40.4999 28.35Z" stroke="white" stroke-linejoin="round"/>
</svg>
