<svg width="22" height="27" viewBox="0 0 22 27" fill="none" xmlns="http://www.w3.org/2000/svg">
<path d="M10.8 0C4.86 0 0 4.86 0 10.8C0 18.09 9.45 26.325 9.855 26.73C10.125 26.865 10.53 27 10.8 27C11.07 27 11.475 26.865 11.745 26.73C12.15 26.325 21.6 18.09 21.6 10.8C21.6 4.86 16.74 0 10.8 0ZM10.8 23.895C7.965 21.195 2.7 15.39 2.7 10.8C2.7 6.345 6.345 2.7 10.8 2.7C15.255 2.7 18.9 6.345 18.9 10.8C18.9 15.255 13.635 21.195 10.8 23.895ZM10.8 5.4C7.83 5.4 5.4 7.83 5.4 10.8C5.4 13.77 7.83 16.2 10.8 16.2C13.77 16.2 16.2 13.77 16.2 10.8C16.2 7.83 13.77 5.4 10.8 5.4ZM10.8 13.5C9.315 13.5 8.1 12.285 8.1 10.8C8.1 9.315 9.315 8.1 10.8 8.1C12.285 8.1 13.5 9.315 13.5 10.8C13.5 12.285 12.285 13.5 10.8 13.5Z" fill="#BC1A1A"/>
</svg>
