<svg width="296" height="197" viewBox="0 0 296 197" fill="none" xmlns="http://www.w3.org/2000/svg">
<path fill-rule="evenodd" clip-rule="evenodd" d="M62.4528 189.71H63.9933L55.979 181.693V183.234L62.4528 189.71Z" fill="#BC1A1A"/>
<path fill-rule="evenodd" clip-rule="evenodd" d="M55.979 160.317V161.858L83.8238 189.71H85.3643L55.979 160.317Z" fill="#BC1A1A"/>
<path fill-rule="evenodd" clip-rule="evenodd" d="M55.979 174.567V176.108L69.5761 189.71H71.117L55.979 174.567Z" fill="#BC1A1A"/>
<path fill-rule="evenodd" clip-rule="evenodd" d="M55.979 154.255V154.732L90.9477 189.71H91.4247V188.646L57.0419 154.255H55.979Z" fill="#BC1A1A"/>
<path fill-rule="evenodd" clip-rule="evenodd" d="M55.979 167.442V168.983L76.7004 189.71H78.2404L55.979 167.442Z" fill="#BC1A1A"/>
<path fill-rule="evenodd" clip-rule="evenodd" d="M78.4145 154.255H76.8735L91.4247 168.809V167.269L78.4145 154.255Z" fill="#BC1A1A"/>
<path fill-rule="evenodd" clip-rule="evenodd" d="M85.5383 154.255H83.9978L91.4246 161.683V160.143L85.5383 154.255Z" fill="#BC1A1A"/>
<path fill-rule="evenodd" clip-rule="evenodd" d="M64.1663 154.255H62.6263L91.4247 183.061V181.52L64.1663 154.255Z" fill="#BC1A1A"/>
<path fill-rule="evenodd" clip-rule="evenodd" d="M71.2902 154.255H69.7496L91.4247 175.936V174.394L71.2902 154.255Z" fill="#BC1A1A"/>
<path fill-rule="evenodd" clip-rule="evenodd" d="M198.643 163.554H199.376L195.565 159.742V160.475L198.643 163.554Z" fill="#009CA6"/>
<path fill-rule="evenodd" clip-rule="evenodd" d="M195.565 149.58V150.312L208.804 163.554H209.536L195.565 149.58Z" fill="#009CA6"/>
<path fill-rule="evenodd" clip-rule="evenodd" d="M195.565 156.355V157.087L202.03 163.554H202.763L195.565 156.355Z" fill="#009CA6"/>
<path fill-rule="evenodd" clip-rule="evenodd" d="M195.565 146.698V146.925L212.191 163.554H212.417V163.048L196.071 146.698H195.565Z" fill="#009CA6"/>
<path fill-rule="evenodd" clip-rule="evenodd" d="M195.565 152.968V153.701L205.417 163.554H206.15L195.565 152.968Z" fill="#009CA6"/>
<path fill-rule="evenodd" clip-rule="evenodd" d="M206.232 146.698H205.5L212.417 153.617V152.885L206.232 146.698Z" fill="#009CA6"/>
<path fill-rule="evenodd" clip-rule="evenodd" d="M209.619 146.698H208.887L212.417 150.23V149.497L209.619 146.698Z" fill="#009CA6"/>
<path fill-rule="evenodd" clip-rule="evenodd" d="M199.458 146.698H198.726L212.417 160.393V159.661L199.458 146.698Z" fill="#009CA6"/>
<path fill-rule="evenodd" clip-rule="evenodd" d="M202.845 146.698H202.113L212.417 157.005V156.272L202.845 146.698Z" fill="#009CA6"/>
<path d="M48.8431 48.8549V97.7104H97.6863V48.8549H48.8431Z" fill="#009CA6"/>
<path d="M0 146.565L0 195.42H48.8431V146.565H0Z" fill="#575656"/>
<path d="M163.942 12.5809V30.5972H181.954V12.5809H163.942Z" fill="#FDE9D1"/>
<path d="M30.8312 30.8381V48.8554H48.8437V30.8381H30.8312Z" fill="#BC1A1A"/>
<path d="M48.8435 97.7101V146.565H97.6866V97.7101H48.8435Z" fill="#009CA6"/>
<path d="M146.53 97.7103V146.565H195.374V97.7103H146.53Z" fill="#BC1A1A"/>
<path d="M162.559 113.744V130.532H179.343V113.744H162.559Z" fill="#009CA6"/>
<path d="M146.53 97.7107V48.8552L97.6873 48.8552V97.7107H146.53Z" fill="#575656"/>
<path d="M146.53 195.421V146.565H97.6873V195.421H146.53Z" fill="#FDE9D1"/>
<path d="M146.53 146.565V97.7104L97.6873 97.7104V146.565H146.53Z" fill="#D6B36A"/>
<path d="M146.529 48.8555V0L97.6854 0V48.8555L146.529 48.8555Z" fill="#BC1A1A"/>
<path fill-rule="evenodd" clip-rule="evenodd" d="M48.8438 97.7098L97.6867 146.565V97.7098H48.8438Z" fill="#BC1A1A"/>
<path fill-rule="evenodd" clip-rule="evenodd" d="M146.53 146.56V123.932C132.135 123.828 120.496 112.132 120.496 97.7096L97.8784 97.7098C97.8784 124.627 119.644 146.456 146.53 146.56Z" fill="#D8D9D9"/>
<path d="M195.373 97.7105V48.855L146.53 48.855V97.7105H195.373Z" fill="#FDE9D1"/>
<path fill-rule="evenodd" clip-rule="evenodd" d="M146.53 71.4883C146.594 71.4878 146.657 71.4789 146.722 71.4789C161.206 71.4789 172.948 83.2234 172.948 97.7105H195.373V93.5068C193.24 68.4945 172.281 48.856 146.722 48.856C146.658 48.856 146.594 48.8609 146.53 48.8609V71.4883Z" fill="#009CA6"/>
<path fill-rule="evenodd" clip-rule="evenodd" d="M33.428 113.129H15.4155L33.428 131.146V113.129Z" fill="#009CA6"/>
<path fill-rule="evenodd" clip-rule="evenodd" d="M247.013 147H229L247.013 165.016V147Z" fill="#FDE9D1"/>
<path fill-rule="evenodd" clip-rule="evenodd" d="M131.211 159.801H113.198L131.211 177.818V159.801Z" fill="#575656"/>
<path fill-rule="evenodd" clip-rule="evenodd" d="M195.373 97.7098H244.216L195.373 48.855V97.7098Z" fill="#D6B36A"/>
<path fill-rule="evenodd" clip-rule="evenodd" d="M295.855 196.843V148L247 196.843H295.855Z" fill="#009CA6"/>
<path fill-rule="evenodd" clip-rule="evenodd" d="M0 97.7098H48.8437L0 48.855V97.7098Z" fill="#D6B36A"/>
</svg>
