<svg width="297" height="245" viewBox="0 0 297 245" fill="none" xmlns="http://www.w3.org/2000/svg">
<path fill-rule="evenodd" clip-rule="evenodd" d="M200.984 200.625C200.393 200.625 199.914 201.104 199.914 201.694C199.914 202.284 200.393 202.763 200.984 202.763C201.575 202.763 202.053 202.284 202.053 201.694C202.054 201.104 201.575 200.625 200.984 200.625Z" fill="#BC1A1A"/>
<path fill-rule="evenodd" clip-rule="evenodd" d="M200.984 189.91C200.393 189.91 199.914 190.389 199.914 190.98C199.914 191.57 200.393 192.048 200.984 192.048C201.575 192.048 202.053 191.57 202.053 190.98C202.054 190.389 201.575 189.91 200.984 189.91Z" fill="#BC1A1A"/>
<path fill-rule="evenodd" clip-rule="evenodd" d="M200.984 179.196C200.393 179.196 199.914 179.675 199.914 180.265C199.914 180.855 200.393 181.334 200.984 181.334C201.575 181.334 202.053 180.855 202.053 180.265C202.054 179.675 201.575 179.196 200.984 179.196Z" fill="#BC1A1A"/>
<path fill-rule="evenodd" clip-rule="evenodd" d="M200.984 168.481C200.393 168.481 199.914 168.96 199.914 169.551C199.914 170.141 200.393 170.619 200.984 170.619C201.575 170.619 202.053 170.141 202.053 169.551C202.054 168.96 201.575 168.481 200.984 168.481Z" fill="#BC1A1A"/>
<path fill-rule="evenodd" clip-rule="evenodd" d="M191.544 200.625C190.953 200.625 190.475 201.104 190.475 201.694C190.475 202.284 190.954 202.763 191.544 202.763C192.134 202.763 192.614 202.284 192.614 201.694C192.613 201.104 192.135 200.625 191.544 200.625Z" fill="#BC1A1A"/>
<path fill-rule="evenodd" clip-rule="evenodd" d="M191.544 189.91C190.953 189.91 190.475 190.389 190.475 190.98C190.475 191.57 190.954 192.048 191.544 192.048C192.134 192.048 192.614 191.57 192.614 190.98C192.613 190.389 192.135 189.91 191.544 189.91Z" fill="#BC1A1A"/>
<path fill-rule="evenodd" clip-rule="evenodd" d="M191.544 179.196C190.953 179.196 190.475 179.675 190.475 180.265C190.475 180.855 190.954 181.334 191.544 181.334C192.134 181.334 192.614 180.855 192.614 180.265C192.613 179.675 192.135 179.196 191.544 179.196Z" fill="#BC1A1A"/>
<path fill-rule="evenodd" clip-rule="evenodd" d="M191.544 168.481C190.953 168.481 190.475 168.96 190.475 169.551C190.475 170.141 190.954 170.619 191.544 170.619C192.134 170.619 192.614 170.141 192.614 169.551C192.613 168.96 192.135 168.481 191.544 168.481Z" fill="#BC1A1A"/>
<path fill-rule="evenodd" clip-rule="evenodd" d="M182.103 200.625C181.513 200.625 181.034 201.104 181.034 201.694C181.034 202.284 181.512 202.763 182.103 202.763C182.694 202.763 183.172 202.284 183.172 201.694C183.173 201.104 182.694 200.625 182.103 200.625Z" fill="#BC1A1A"/>
<path fill-rule="evenodd" clip-rule="evenodd" d="M182.103 189.91C181.513 189.91 181.034 190.389 181.034 190.98C181.034 191.57 181.512 192.048 182.103 192.048C182.694 192.048 183.172 191.57 183.172 190.98C183.173 190.389 182.694 189.91 182.103 189.91Z" fill="#BC1A1A"/>
<path fill-rule="evenodd" clip-rule="evenodd" d="M172.663 200.625C172.073 200.625 171.593 201.104 171.593 201.694C171.593 202.284 172.072 202.763 172.663 202.763C173.254 202.763 173.732 202.284 173.732 201.694C173.733 201.104 173.254 200.625 172.663 200.625Z" fill="#BC1A1A"/>
<path fill-rule="evenodd" clip-rule="evenodd" d="M172.663 189.91C172.073 189.91 171.593 190.389 171.593 190.98C171.593 191.57 172.072 192.048 172.663 192.048C173.254 192.048 173.732 191.57 173.732 190.98C173.733 190.389 173.254 189.91 172.663 189.91Z" fill="#BC1A1A"/>
<path fill-rule="evenodd" clip-rule="evenodd" d="M5.71125 62.4532V63.9941L13.7284 55.9794H12.1873L5.71125 62.4532Z" fill="#D8D9D9"/>
<path fill-rule="evenodd" clip-rule="evenodd" d="M35.1046 55.9794H33.5634L5.71122 83.8242V85.3651L35.1046 55.9794Z" fill="#D8D9D9"/>
<path fill-rule="evenodd" clip-rule="evenodd" d="M20.854 55.9794H19.3121L5.71123 69.5769V71.1184L20.854 55.9794Z" fill="#D8D9D9"/>
<path fill-rule="evenodd" clip-rule="evenodd" d="M41.1659 55.9794H40.6892L5.71119 90.9485V91.4251H6.77532L41.1659 57.0433V55.9794Z" fill="#D8D9D9"/>
<path fill-rule="evenodd" clip-rule="evenodd" d="M27.9781 55.9794H26.4379L5.71115 76.7008V78.2408L27.9781 55.9794Z" fill="#D8D9D9"/>
<path fill-rule="evenodd" clip-rule="evenodd" d="M41.1659 78.4153V76.8744L26.6115 91.4252H28.1523L41.1659 78.4153Z" fill="#D8D9D9"/>
<path fill-rule="evenodd" clip-rule="evenodd" d="M41.1659 85.5392V83.9987L33.7375 91.4251H35.2781L41.1659 85.5392Z" fill="#D8D9D9"/>
<path fill-rule="evenodd" clip-rule="evenodd" d="M41.1659 64.1669V62.6267L12.3599 91.4251H13.9011L41.1659 64.1669Z" fill="#D8D9D9"/>
<path fill-rule="evenodd" clip-rule="evenodd" d="M41.1659 71.291V69.7502L19.4857 91.4251H21.0269L41.1659 71.291Z" fill="#D8D9D9"/>
<path fill-rule="evenodd" clip-rule="evenodd" d="M31.8668 198.644V199.377L35.678 195.566H34.9457L31.8668 198.644Z" fill="#009CA6"/>
<path fill-rule="evenodd" clip-rule="evenodd" d="M45.8413 195.566H45.1088L31.8668 208.804V209.537L45.8413 195.566Z" fill="#009CA6"/>
<path fill-rule="evenodd" clip-rule="evenodd" d="M39.066 195.566H38.3329L31.8667 202.031V202.763L39.066 195.566Z" fill="#009CA6"/>
<path fill-rule="evenodd" clip-rule="evenodd" d="M48.7234 195.566H48.4964L31.8668 212.192V212.418H32.3724L48.7234 196.072V195.566Z" fill="#009CA6"/>
<path fill-rule="evenodd" clip-rule="evenodd" d="M42.4537 195.566H41.7207L31.8668 205.417V206.149L42.4537 195.566Z" fill="#009CA6"/>
<path fill-rule="evenodd" clip-rule="evenodd" d="M48.7234 206.233V205.5L41.8033 212.418H42.5361L48.7234 206.233Z" fill="#009CA6"/>
<path fill-rule="evenodd" clip-rule="evenodd" d="M48.7234 209.62V208.887L45.1916 212.418H45.9237L48.7234 209.62Z" fill="#009CA6"/>
<path fill-rule="evenodd" clip-rule="evenodd" d="M48.7234 199.458V198.726L35.028 212.418H35.7605L48.7234 199.458Z" fill="#009CA6"/>
<path fill-rule="evenodd" clip-rule="evenodd" d="M48.7234 202.845V202.113L38.4156 212.418H39.1489L48.7234 202.845Z" fill="#009CA6"/>
<path d="M146.566 48.8449L97.7107 48.8449V97.688H146.566V48.8449Z" fill="#009CA6"/>
<path d="M48.8558 0L0.000244141 0L0.000244141 48.8431L48.8558 48.8431L48.8558 0Z" fill="#575656"/>
<path d="M182.841 163.942H164.824V181.954H182.841V163.942Z" fill="#FDE9D1"/>
<path d="M164.583 30.832L146.566 30.832V48.8445H164.583V30.832Z" fill="#BC1A1A"/>
<path d="M97.711 48.8449L48.8555 48.8449L48.8555 97.688H97.711V48.8449Z" fill="#009CA6"/>
<path d="M97.711 146.531H48.8555L48.8555 195.374H97.711V146.531Z" fill="#BC1A1A"/>
<path d="M81.6766 162.561H64.889V179.345H81.6766V162.561Z" fill="#009CA6"/>
<path d="M97.711 146.531H146.566V97.6877H97.711V146.531Z" fill="#575656"/>
<path d="M-4.19617e-05 146.531H48.8555V97.6877H-4.19617e-05V146.531Z" fill="#FDE9D1"/>
<path d="M48.8552 146.531H97.7107V97.6877H48.8552V146.531Z" fill="#D6B36A"/>
<path d="M146.565 146.531H195.421V97.6877H146.565V146.531Z" fill="#BC1A1A"/>
<path fill-rule="evenodd" clip-rule="evenodd" d="M97.7107 48.8445L48.8559 97.6874H97.7107L97.7107 48.8445Z" fill="#BC1A1A"/>
<path fill-rule="evenodd" clip-rule="evenodd" d="M48.8607 146.531H71.4892C71.5943 132.136 83.2887 120.497 97.7113 120.497V97.8792C70.7931 97.8797 48.9648 119.644 48.8607 146.531Z" fill="#D8D9D9"/>
<path d="M97.711 195.374H146.566V146.531H97.711V195.374Z" fill="#FDE9D1"/>
<path fill-rule="evenodd" clip-rule="evenodd" d="M123.933 146.531C123.933 146.595 123.942 146.658 123.942 146.723C123.942 161.206 112.198 172.948 97.7107 172.948V195.374H101.915C126.927 193.242 146.565 172.281 146.565 146.723C146.565 146.659 146.56 146.596 146.56 146.531H123.933V146.531Z" fill="#009CA6"/>
<path fill-rule="evenodd" clip-rule="evenodd" d="M82.292 33.4289V15.416L64.2747 33.4289H82.292Z" fill="#009CA6"/>
<path fill-rule="evenodd" clip-rule="evenodd" d="M35.6202 131.211V113.199L17.603 131.211H35.6202Z" fill="#575656"/>
<path fill-rule="evenodd" clip-rule="evenodd" d="M97.7107 195.374V244.217L146.566 195.374H97.7107Z" fill="#D6B36A"/>
<path fill-rule="evenodd" clip-rule="evenodd" d="M268.952 146.798V97.9546L220.096 146.798H268.952Z" fill="#D8D9D9"/>
<path fill-rule="evenodd" clip-rule="evenodd" d="M296.971 147.061V127.9L277.805 147.061H296.971Z" fill="#BC1A1A"/>
<path fill-rule="evenodd" clip-rule="evenodd" d="M97.7107 0.000549316V48.8445L146.566 0.000549316L97.7107 0.000549316Z" fill="#D8D9D9"/>
</svg>
