<svg width="293" height="196" viewBox="0 0 293 196" fill="none" xmlns="http://www.w3.org/2000/svg">
<path fill-rule="evenodd" clip-rule="evenodd" d="M230.766 189.712H229.226L237.24 181.695V183.236L230.766 189.712Z" fill="#BC1A1A"/>
<path fill-rule="evenodd" clip-rule="evenodd" d="M237.24 160.319V161.86L209.395 189.712H207.854L237.24 160.319Z" fill="#BC1A1A"/>
<path fill-rule="evenodd" clip-rule="evenodd" d="M237.24 174.57V176.111L223.643 189.712H222.102L237.24 174.57Z" fill="#BC1A1A"/>
<path fill-rule="evenodd" clip-rule="evenodd" d="M237.24 154.257V154.734L202.271 189.712H201.794V188.648L236.177 154.257H237.24Z" fill="#BC1A1A"/>
<path fill-rule="evenodd" clip-rule="evenodd" d="M237.24 167.444V168.986L216.518 189.712H214.978L237.24 167.444Z" fill="#BC1A1A"/>
<path fill-rule="evenodd" clip-rule="evenodd" d="M214.804 154.257H216.345L201.794 168.811V167.271L214.804 154.257Z" fill="#BC1A1A"/>
<path fill-rule="evenodd" clip-rule="evenodd" d="M207.68 154.257H209.221L201.794 161.686V160.145L207.68 154.257Z" fill="#BC1A1A"/>
<path fill-rule="evenodd" clip-rule="evenodd" d="M229.053 154.257H230.593L201.794 183.063V181.523L229.053 154.257Z" fill="#BC1A1A"/>
<path fill-rule="evenodd" clip-rule="evenodd" d="M221.929 154.257H223.469L201.794 175.938V174.397L221.929 154.257Z" fill="#BC1A1A"/>
<path fill-rule="evenodd" clip-rule="evenodd" d="M94.5743 163.556H93.8412L97.6523 159.745V160.477L94.5743 163.556Z" fill="#009CA6"/>
<path fill-rule="evenodd" clip-rule="evenodd" d="M97.6523 149.582V150.315L84.4137 163.556H83.6807L97.6523 149.582Z" fill="#009CA6"/>
<path fill-rule="evenodd" clip-rule="evenodd" d="M97.6523 156.357V157.089L91.1874 163.556H90.4546L97.6523 156.357Z" fill="#009CA6"/>
<path fill-rule="evenodd" clip-rule="evenodd" d="M97.6523 146.7V146.927L81.0262 163.556H80.7998V163.05L97.1463 146.7H97.6523Z" fill="#009CA6"/>
<path fill-rule="evenodd" clip-rule="evenodd" d="M97.6523 152.97V153.703L87.8006 163.556H87.0677L97.6523 152.97Z" fill="#009CA6"/>
<path fill-rule="evenodd" clip-rule="evenodd" d="M86.9848 146.7H87.7178L80.7998 153.619V152.887L86.9848 146.7Z" fill="#009CA6"/>
<path fill-rule="evenodd" clip-rule="evenodd" d="M83.5982 146.7H84.3302L80.7997 150.232V149.499L83.5982 146.7Z" fill="#009CA6"/>
<path fill-rule="evenodd" clip-rule="evenodd" d="M93.7592 146.7H94.4916L80.7997 160.395V159.663L93.7592 146.7Z" fill="#009CA6"/>
<path fill-rule="evenodd" clip-rule="evenodd" d="M90.3724 146.7H91.1047L80.7998 157.008V156.275L90.3724 146.7Z" fill="#009CA6"/>
<path d="M244.376 48.8555V97.7117H195.532V48.8555H244.376Z" fill="#009CA6"/>
<path d="M293.22 146.567V195.423H244.376V146.567H293.22Z" fill="#575656"/>
<path d="M129.276 12.5811V30.5977H111.263V12.5811H129.276Z" fill="#FDE9D1"/>
<path d="M262.388 30.8385V48.856H244.376V30.8385H262.388Z" fill="#BC1A1A"/>
<path d="M244.376 97.7115V146.567H195.532V97.7115H244.376Z" fill="#009CA6"/>
<path d="M146.688 97.7116V146.567H97.8438V97.7116H146.688Z" fill="#BC1A1A"/>
<path d="M130.659 113.745V130.534H113.875V113.745H130.659Z" fill="#009CA6"/>
<path d="M146.688 97.712V48.8559L195.531 48.8559V97.712H146.688Z" fill="#575656"/>
<path d="M146.688 195.424V146.567H195.531V195.424H146.688Z" fill="#FDE9D1"/>
<path d="M146.688 146.567V97.7117L195.531 97.7117V146.567H146.688Z" fill="#D6B36A"/>
<path d="M146.689 48.8562V0L195.533 0V48.8562L146.689 48.8562Z" fill="#BC1A1A"/>
<path fill-rule="evenodd" clip-rule="evenodd" d="M244.376 97.7111L195.532 146.567V97.7111H244.376Z" fill="#BC1A1A"/>
<path fill-rule="evenodd" clip-rule="evenodd" d="M146.688 146.562V123.933C161.083 123.829 172.722 112.134 172.722 97.7109L195.34 97.7111C195.34 124.629 173.575 146.458 146.688 146.562Z" fill="#D8D9D9"/>
<path d="M97.8439 97.7118L97.8439 48.8557L146.688 48.8557V97.7118H97.8439Z" fill="#FDE9D1"/>
<path fill-rule="evenodd" clip-rule="evenodd" d="M146.688 71.4892C146.624 71.4886 146.561 71.4798 146.496 71.4798C132.012 71.4798 120.27 83.2244 120.27 97.7117H97.8439V93.5079C99.9774 68.4953 120.937 48.8566 146.496 48.8566C146.56 48.8566 146.624 48.8615 146.688 48.8615V71.4892Z" fill="#009CA6"/>
<path fill-rule="evenodd" clip-rule="evenodd" d="M259.791 113.131H277.804L259.791 131.147V113.131Z" fill="#009CA6"/>
<path fill-rule="evenodd" clip-rule="evenodd" d="M162.008 159.803H180.02L162.008 177.82V159.803Z" fill="#575656"/>
<path fill-rule="evenodd" clip-rule="evenodd" d="M97.8445 97.7111H49.0007L97.8445 48.8556V97.7111Z" fill="#D6B36A"/>
<path fill-rule="evenodd" clip-rule="evenodd" d="M0 0.566097H48.8438L0 49.4216L0 0.566097Z" fill="#D8D9D9"/>
<path fill-rule="evenodd" clip-rule="evenodd" d="M293.22 97.7111H244.376L293.22 48.8557V97.7111Z" fill="#D6B36A"/>
<path fill-rule="evenodd" clip-rule="evenodd" d="M66.1381 2.03033C66.1381 2.62103 65.6593 3.10009 65.0695 3.10009C64.4789 3.10009 64.0007 2.62122 64.0007 2.03033C64.0007 1.43963 64.4789 0.96135 65.0695 0.96135C65.6593 0.96077 66.1381 1.43963 66.1381 2.03033Z" fill="#BC1A1A"/>
<path fill-rule="evenodd" clip-rule="evenodd" d="M76.8533 2.03033C76.8533 2.62103 76.3745 3.10009 75.7838 3.10009C75.1932 3.10009 74.715 2.62122 74.715 2.03033C74.715 1.43963 75.1938 0.96135 75.7838 0.96135C76.3743 0.96077 76.8533 1.43963 76.8533 2.03033Z" fill="#BC1A1A"/>
<path fill-rule="evenodd" clip-rule="evenodd" d="M87.5675 2.03033C87.5675 2.62103 87.0887 3.10009 86.4987 3.10009C85.9082 3.10009 85.43 2.62122 85.43 2.03033C85.43 1.43963 85.9082 0.96135 86.4987 0.96135C87.0887 0.96077 87.5675 1.43963 87.5675 2.03033Z" fill="#BC1A1A"/>
<path fill-rule="evenodd" clip-rule="evenodd" d="M98.2827 2.03033C98.2827 2.62103 97.804 3.10009 97.213 3.10009C96.6224 3.10009 96.1443 2.62122 96.1443 2.03033C96.1443 1.43963 96.623 0.96135 97.213 0.96135C97.804 0.96077 98.2827 1.43963 98.2827 2.03033Z" fill="#BC1A1A"/>
<path fill-rule="evenodd" clip-rule="evenodd" d="M66.1381 11.4707C66.1381 12.0614 65.6593 12.5396 65.0695 12.5396C64.4789 12.5396 64.0007 12.0608 64.0007 11.4707C64.0007 10.88 64.4789 10.4009 65.0695 10.4009C65.6593 10.4015 66.1381 10.8798 66.1381 11.4707Z" fill="#BC1A1A"/>
<path fill-rule="evenodd" clip-rule="evenodd" d="M76.8533 11.4707C76.8533 12.0614 76.3745 12.5396 75.7838 12.5396C75.1932 12.5396 74.715 12.0608 74.715 11.4707C74.715 10.88 75.1938 10.4009 75.7838 10.4009C76.3743 10.4015 76.8533 10.8798 76.8533 11.4707Z" fill="#BC1A1A"/>
<path fill-rule="evenodd" clip-rule="evenodd" d="M87.5675 11.4707C87.5675 12.0614 87.0887 12.5396 86.4987 12.5396C85.9082 12.5396 85.43 12.0608 85.43 11.4707C85.43 10.88 85.9082 10.4009 86.4987 10.4009C87.0887 10.4015 87.5675 10.8798 87.5675 11.4707Z" fill="#BC1A1A"/>
<path fill-rule="evenodd" clip-rule="evenodd" d="M98.2827 11.4707C98.2827 12.0614 97.804 12.5396 97.213 12.5396C96.6224 12.5396 96.1443 12.0608 96.1443 11.4707C96.1443 10.88 96.623 10.4009 97.213 10.4009C97.804 10.4015 98.2827 10.8798 98.2827 11.4707Z" fill="#BC1A1A"/>
<path fill-rule="evenodd" clip-rule="evenodd" d="M66.1381 20.9113C66.1381 21.502 65.6593 21.9811 65.0695 21.9811C64.4789 21.9811 64.0007 21.5022 64.0007 20.9113C64.0007 20.3206 64.4789 19.8424 65.0695 19.8424C65.6593 19.8414 66.1381 20.3206 66.1381 20.9113Z" fill="#BC1A1A"/>
<path fill-rule="evenodd" clip-rule="evenodd" d="M76.8533 20.9113C76.8533 21.502 76.3745 21.9811 75.7838 21.9811C75.1932 21.9811 74.715 21.5022 74.715 20.9113C74.715 20.3206 75.1938 19.8424 75.7838 19.8424C76.3743 19.8414 76.8533 20.3206 76.8533 20.9113Z" fill="#BC1A1A"/>
<path fill-rule="evenodd" clip-rule="evenodd" d="M66.1381 30.3515C66.1381 30.9422 65.6593 31.4212 65.0695 31.4212C64.4789 31.4212 64.0007 30.9424 64.0007 30.3515C64.0007 29.7608 64.4789 29.2825 65.0695 29.2825C65.6593 29.2815 66.1381 29.7608 66.1381 30.3515Z" fill="#BC1A1A"/>
<path fill-rule="evenodd" clip-rule="evenodd" d="M76.8533 30.3515C76.8533 30.9422 76.3745 31.4212 75.7838 31.4212C75.1932 31.4212 74.715 30.9424 74.715 30.3515C74.715 29.7608 75.1938 29.2825 75.7838 29.2825C76.3743 29.2815 76.8533 29.7608 76.8533 30.3515Z" fill="#BC1A1A"/>
</svg>
