<svg width="293" height="205" viewBox="0 0 293 205" fill="none" xmlns="http://www.w3.org/2000/svg">
<path fill-rule="evenodd" clip-rule="evenodd" d="M92.592 200.984C92.592 200.393 92.1133 199.914 91.5235 199.914C90.9329 199.914 90.4547 200.393 90.4547 200.984C90.4547 201.575 90.9329 202.053 91.5235 202.053C92.1133 202.054 92.592 201.575 92.592 200.984Z" fill="#BC1A1A"/>
<path fill-rule="evenodd" clip-rule="evenodd" d="M103.307 200.984C103.307 200.393 102.828 199.914 102.238 199.914C101.647 199.914 101.169 200.393 101.169 200.984C101.169 201.575 101.648 202.053 102.238 202.053C102.828 202.054 103.307 201.575 103.307 200.984Z" fill="#BC1A1A"/>
<path fill-rule="evenodd" clip-rule="evenodd" d="M114.021 200.984C114.021 200.393 113.542 199.914 112.952 199.914C112.362 199.914 111.884 200.393 111.884 200.984C111.884 201.575 112.362 202.053 112.952 202.053C113.542 202.054 114.021 201.575 114.021 200.984Z" fill="#BC1A1A"/>
<path fill-rule="evenodd" clip-rule="evenodd" d="M124.736 200.984C124.736 200.393 124.258 199.914 123.667 199.914C123.076 199.914 122.598 200.393 122.598 200.984C122.598 201.575 123.077 202.053 123.667 202.053C124.258 202.054 124.736 201.575 124.736 200.984Z" fill="#BC1A1A"/>
<path fill-rule="evenodd" clip-rule="evenodd" d="M92.592 191.544C92.592 190.953 92.1133 190.475 91.5235 190.475C90.9329 190.475 90.4547 190.954 90.4547 191.544C90.4547 192.135 90.9329 192.614 91.5235 192.614C92.1133 192.613 92.592 192.135 92.592 191.544Z" fill="#BC1A1A"/>
<path fill-rule="evenodd" clip-rule="evenodd" d="M103.307 191.544C103.307 190.953 102.828 190.475 102.238 190.475C101.647 190.475 101.169 190.954 101.169 191.544C101.169 192.135 101.648 192.614 102.238 192.614C102.828 192.613 103.307 192.135 103.307 191.544Z" fill="#BC1A1A"/>
<path fill-rule="evenodd" clip-rule="evenodd" d="M114.021 191.544C114.021 190.953 113.542 190.475 112.952 190.475C112.362 190.475 111.884 190.954 111.884 191.544C111.884 192.135 112.362 192.614 112.952 192.614C113.542 192.613 114.021 192.135 114.021 191.544Z" fill="#BC1A1A"/>
<path fill-rule="evenodd" clip-rule="evenodd" d="M124.736 191.544C124.736 190.953 124.258 190.475 123.667 190.475C123.076 190.475 122.598 190.954 122.598 191.544C122.598 192.135 123.077 192.614 123.667 192.614C124.258 192.613 124.736 192.135 124.736 191.544Z" fill="#BC1A1A"/>
<path fill-rule="evenodd" clip-rule="evenodd" d="M92.592 182.103C92.592 181.513 92.1133 181.034 91.5235 181.034C90.9329 181.034 90.4547 181.513 90.4547 182.103C90.4547 182.694 90.9329 183.172 91.5235 183.172C92.1133 183.173 92.592 182.694 92.592 182.103Z" fill="#BC1A1A"/>
<path fill-rule="evenodd" clip-rule="evenodd" d="M103.307 182.103C103.307 181.513 102.828 181.034 102.238 181.034C101.647 181.034 101.169 181.513 101.169 182.103C101.169 182.694 101.648 183.172 102.238 183.172C102.828 183.173 103.307 182.694 103.307 182.103Z" fill="#BC1A1A"/>
<path fill-rule="evenodd" clip-rule="evenodd" d="M92.592 172.663C92.592 172.073 92.1133 171.594 91.5235 171.594C90.9329 171.594 90.4547 172.073 90.4547 172.663C90.4547 173.254 90.9329 173.732 91.5235 173.732C92.1133 173.733 92.592 173.254 92.592 172.663Z" fill="#BC1A1A"/>
<path fill-rule="evenodd" clip-rule="evenodd" d="M103.307 172.663C103.307 172.073 102.828 171.594 102.238 171.594C101.647 171.594 101.169 172.073 101.169 172.663C101.169 173.254 101.648 173.732 102.238 173.732C102.828 173.733 103.307 173.254 103.307 172.663Z" fill="#BC1A1A"/>
<path fill-rule="evenodd" clip-rule="evenodd" d="M230.764 5.71137H229.223L237.238 13.7285V12.1875L230.764 5.71137Z" fill="#D8D9D9"/>
<path fill-rule="evenodd" clip-rule="evenodd" d="M237.238 35.1047V33.5635L209.393 5.71134H207.852L237.238 35.1047Z" fill="#D8D9D9"/>
<path fill-rule="evenodd" clip-rule="evenodd" d="M237.238 20.8541V19.3123L223.64 5.71135H222.099L237.238 20.8541Z" fill="#D8D9D9"/>
<path fill-rule="evenodd" clip-rule="evenodd" d="M237.238 41.1661V40.6893L202.269 5.71137H201.792V6.7755L236.174 41.1661H237.238Z" fill="#D8D9D9"/>
<path fill-rule="evenodd" clip-rule="evenodd" d="M237.238 27.9783V26.4381L216.516 5.71133H214.976L237.238 27.9783Z" fill="#D8D9D9"/>
<path fill-rule="evenodd" clip-rule="evenodd" d="M214.802 41.1661H216.343L201.792 26.6117V28.1525L214.802 41.1661Z" fill="#D8D9D9"/>
<path fill-rule="evenodd" clip-rule="evenodd" d="M207.678 41.1661H209.219L201.792 33.7376V35.2783L207.678 41.1661Z" fill="#D8D9D9"/>
<path fill-rule="evenodd" clip-rule="evenodd" d="M229.05 41.1661H230.591L201.792 12.36V13.9013L229.05 41.1661Z" fill="#D8D9D9"/>
<path fill-rule="evenodd" clip-rule="evenodd" d="M221.926 41.1661H223.467L201.792 19.4859V21.0271L221.926 41.1661Z" fill="#D8D9D9"/>
<path fill-rule="evenodd" clip-rule="evenodd" d="M94.5737 31.8669H93.8407L97.6516 35.678V34.9457L94.5737 31.8669Z" fill="#009CA6"/>
<path fill-rule="evenodd" clip-rule="evenodd" d="M97.6516 45.8414V45.1089L84.4129 31.8669H83.6804L97.6516 45.8414Z" fill="#009CA6"/>
<path fill-rule="evenodd" clip-rule="evenodd" d="M97.6516 39.0662V38.3331L91.1867 31.8669H90.4538L97.6516 39.0662Z" fill="#009CA6"/>
<path fill-rule="evenodd" clip-rule="evenodd" d="M97.6516 48.7235V48.4966L81.0255 31.8669H80.7994V32.3725L97.1456 48.7235H97.6516Z" fill="#009CA6"/>
<path fill-rule="evenodd" clip-rule="evenodd" d="M97.6516 42.4539V41.7208L87.7998 31.8669H87.0679L97.6516 42.4539Z" fill="#009CA6"/>
<path fill-rule="evenodd" clip-rule="evenodd" d="M86.9845 48.7235H87.7174L80.7993 41.8034V42.5362L86.9845 48.7235Z" fill="#009CA6"/>
<path fill-rule="evenodd" clip-rule="evenodd" d="M83.5976 48.7235H84.33L80.7993 45.1917V45.9239L83.5976 48.7235Z" fill="#009CA6"/>
<path fill-rule="evenodd" clip-rule="evenodd" d="M93.7588 48.7235H94.491L80.7993 35.0282V35.7607L93.7588 48.7235Z" fill="#009CA6"/>
<path fill-rule="evenodd" clip-rule="evenodd" d="M90.3719 48.7235H91.1039L80.7993 38.4158V39.1491L90.3719 48.7235Z" fill="#009CA6"/>
<path d="M244.372 146.566V97.7109H195.529V146.566H244.372Z" fill="#009CA6"/>
<path d="M293.217 48.8559V0.000427246L244.374 0.000427246V48.8559L293.217 48.8559Z" fill="#575656"/>
<path d="M129.275 182.841V164.825H111.263V182.841H129.275Z" fill="#FDE9D1"/>
<path d="M262.385 164.583V146.566H244.373V164.583H262.385Z" fill="#BC1A1A"/>
<path d="M244.372 97.7112V48.8557L195.529 48.8557V97.7112H244.372Z" fill="#009CA6"/>
<path d="M146.687 97.7112V48.8557L97.8434 48.8557V97.7112H146.687Z" fill="#BC1A1A"/>
<path d="M130.656 81.6768V64.8892H113.872V81.6768H130.656Z" fill="#009CA6"/>
<path d="M146.687 97.7111V146.566H195.53V97.7111L146.687 97.7111Z" fill="#575656"/>
<path d="M146.687 0.000141144V48.8557L195.53 48.8557V0.000141144L146.687 0.000141144Z" fill="#FDE9D1"/>
<path d="M146.687 48.8554V97.7109L195.53 97.7109V48.8554L146.687 48.8554Z" fill="#D6B36A"/>
<path d="M146.687 146.566V195.421H195.53V146.566H146.687Z" fill="#BC1A1A"/>
<path fill-rule="evenodd" clip-rule="evenodd" d="M244.373 97.7109L195.53 48.8561V97.7109H244.373Z" fill="#BC1A1A"/>
<path fill-rule="evenodd" clip-rule="evenodd" d="M146.687 48.8609V71.4893C161.082 71.5944 172.72 83.2888 172.72 97.7114H195.338C195.338 70.7932 173.573 48.965 146.687 48.8609Z" fill="#D8D9D9"/>
<path d="M97.8435 97.7111L97.8435 146.566H146.687V97.7111L97.8435 97.7111Z" fill="#FDE9D1"/>
<path fill-rule="evenodd" clip-rule="evenodd" d="M146.687 123.933C146.622 123.933 146.56 123.943 146.495 123.943C132.011 123.943 120.269 112.198 120.269 97.7108H97.8431V101.915C99.9758 126.927 120.936 146.565 146.494 146.565C146.558 146.565 146.622 146.561 146.686 146.561V123.933H146.687Z" fill="#009CA6"/>
<path fill-rule="evenodd" clip-rule="evenodd" d="M259.788 82.2922H277.801L259.788 64.2749V82.2922Z" fill="#009CA6"/>
<path fill-rule="evenodd" clip-rule="evenodd" d="M162.006 35.6204H180.019L162.006 17.6031V35.6204Z" fill="#575656"/>
<path fill-rule="evenodd" clip-rule="evenodd" d="M97.8438 97.7109H49L97.8438 146.567V97.7109Z" fill="#D6B36A"/>
<path fill-rule="evenodd" clip-rule="evenodd" d="M293.217 97.7109H244.373L293.217 146.566V97.7109Z" fill="#D8D9D9"/>
<path fill-rule="evenodd" clip-rule="evenodd" d="M0 205L0 156L49 205H0Z" fill="#009CA6"/>
<path fill-rule="evenodd" clip-rule="evenodd" d="M39 171V152L58 171H39Z" fill="#BC1A1A"/>
</svg>
