<svg width="251" height="16" viewBox="0 0 251 16" fill="none" xmlns="http://www.w3.org/2000/svg">
<path d="M1.70714 12.6364C1.70714 12.6364 1.30462 13.2121 5.41036 13.303C9.51609 13.3939 39.9469 10.7879 73.3563 9.72728C106.766 8.66668 138.163 7.45456 168.191 8.66668C198.219 9.8485 211.905 11.5455 211.905 11.5455C211.905 11.5455 225.027 13.3636 228.891 14.1515C232.755 14.9394 233.561 15.394 237.908 14.8485C242.255 14.303 247.89 11.8788 249.661 10.4546C250.547 9.72728 250.869 9.33334 250.869 9.00001C250.869 9.00001 250.869 8.48486 250.306 7.9394C246.522 4.30304 215.93 2.63637 215.93 2.63637C215.93 2.63637 175.114 0.424254 138.243 0.363647C131.722 0.363647 126.409 0.424254 125.362 0.424254C122.545 0.454557 118.117 0.545465 110.147 0.757587C99.1983 1.06062 90.8258 1.39395 89.2962 1.45456C56.3698 2.81819 34.07 4.09092 28.8372 4.42425C28.1932 4.45456 27.7101 4.48486 27.3076 4.51516C22.6384 4.63637 18.8546 4.96971 16.1175 5.27274C12.9778 5.60607 11.0457 5.81819 8.79155 6.39395C7.02045 6.81819 3.47824 7.78789 1.62664 9.54546C0.902095 10.4849 -0.0639608 11.8182 1.70714 12.6364Z" fill="#009CA6"/>
</svg>
