<svg width="82" height="82" viewBox="0 0 82 82" fill="none" xmlns="http://www.w3.org/2000/svg">
<path d="M68.3334 34.1668C68.3334 54.6668 41.0001 75.1668 41.0001 75.1668C41.0001 75.1668 13.6667 54.6668 13.6667 34.1668C13.6667 26.9176 16.5465 19.9652 21.6725 14.8392C26.7985 9.71325 33.7508 6.8335 41.0001 6.8335C48.2493 6.8335 55.2017 9.71325 60.3277 14.8392C65.4537 19.9652 68.3334 26.9176 68.3334 34.1668V34.1668Z" stroke="#009CA6" stroke-width="2" stroke-linecap="round" stroke-linejoin="round"/>
<path d="M41 44.4165C46.6609 44.4165 51.25 39.8274 51.25 34.1665C51.25 28.5056 46.6609 23.9165 41 23.9165C35.3391 23.9165 30.75 28.5056 30.75 34.1665C30.75 39.8274 35.3391 44.4165 41 44.4165Z" stroke="#009CA6" stroke-width="2" stroke-linecap="round" stroke-linejoin="round"/>
</svg>
