<svg width="32" height="20" viewBox="0 0 32 20" fill="none" xmlns="http://www.w3.org/2000/svg">
<path d="M31.5977 10.3206C31.5977 15.5221 27.3685 19.7999 22.1185 19.7999C16.917 19.7999 12.6392 15.5221 12.6392 10.3206C12.6392 5.11914 16.8684 0.841309 22.0698 0.841309C27.3685 0.841309 31.5977 5.11914 31.5977 10.3206Z" fill="#F9B50B"/>
<path d="M18.91 10.3692C18.91 9.68865 18.8127 9.00808 18.7155 8.37613H12.8821C12.9307 8.03585 13.0279 7.74418 13.1252 7.35528H18.3266C18.2294 7.015 18.0836 6.67472 17.9377 6.33444H13.5141C13.6599 5.99415 13.8543 5.70248 14.0488 5.31359H17.403C17.2086 4.97331 16.9655 4.63302 16.6738 4.29274H14.8266C15.1183 3.95246 15.4099 3.66079 15.7988 3.32051C14.146 1.76493 11.9099 0.841309 9.43068 0.841309C4.27783 0.987144 0 5.11914 0 10.3206C0 15.5221 4.22922 19.7999 9.47929 19.7999C11.9585 19.7999 14.146 18.8277 15.8474 17.3207C16.1877 17.029 16.4794 16.6887 16.8197 16.2998H14.8752C14.6321 16.0082 14.3891 15.6679 14.1946 15.3276H17.5002C17.6947 15.0359 17.8891 14.6957 18.035 14.3068H13.6113C13.4655 14.0151 13.3196 13.6748 13.2224 13.2859H18.4239C18.7155 12.4109 18.91 11.4387 18.91 10.3692Z" fill="#C8191C"/>
<path d="M12.8334 12.7513L12.9792 11.8763C12.9306 11.8763 12.8334 11.9249 12.7361 11.9249C12.3958 11.9249 12.3472 11.7305 12.3958 11.6332L12.6875 9.88321H13.2222L13.3681 8.91098H12.882L12.9792 8.32764H11.9583C11.9583 8.32764 11.375 11.6332 11.375 12.0221C11.375 12.6055 11.7153 12.8971 12.2014 12.8971C12.4931 12.8971 12.7361 12.7999 12.8334 12.7513Z" fill="white"/>
<path d="M13.1738 11.1469C13.1738 12.5566 14.1461 12.8969 14.9239 12.8969C15.653 12.8969 15.9933 12.7511 15.9933 12.7511L16.1878 11.7789C16.1878 11.7789 15.653 12.0219 15.1183 12.0219C14.0002 12.0219 14.1947 11.1955 14.1947 11.1955H16.2364C16.2364 11.1955 16.3822 10.5636 16.3822 10.2719C16.3822 9.63994 16.0419 8.81354 14.9239 8.81354C13.9516 8.76493 13.1738 9.883 13.1738 11.1469ZM14.9239 9.68855C15.4586 9.68855 15.3614 10.3205 15.3614 10.3691H14.2433C14.2919 10.3205 14.3891 9.68855 14.9239 9.68855Z" fill="white"/>
<path d="M21.2919 12.7515L21.4863 11.6334C21.4863 11.6334 21.0002 11.8765 20.6113 11.8765C19.9307 11.8765 19.5905 11.3417 19.5905 10.7098C19.5905 9.49447 20.1738 8.86252 20.903 8.86252C21.3891 8.86252 21.8266 9.15419 21.8266 9.15419L21.9724 8.08473C21.9724 8.08473 21.3891 7.84167 20.8057 7.84167C19.6391 7.84167 18.521 8.86252 18.521 10.7584C18.521 12.0223 19.1043 12.8487 20.3196 12.8487C20.7571 12.8973 21.2919 12.7515 21.2919 12.7515Z" fill="white"/>
<path d="M7.34019 8.76501C6.65963 8.76501 6.1249 8.95946 6.1249 8.95946L5.97907 9.83447C5.97907 9.83447 6.41657 9.64003 7.09714 9.64003C7.43742 9.64003 7.72909 9.68864 7.72909 9.98031C7.72909 10.1748 7.68048 10.2234 7.68048 10.2234H7.24297C6.36796 10.2234 5.44434 10.5636 5.44434 11.7303C5.44434 12.654 6.02768 12.8484 6.41657 12.8484C7.09714 12.8484 7.43742 12.4109 7.48603 12.4109L7.43742 12.7998H8.26382L8.65271 10.0289C8.65271 8.81363 7.68048 8.76501 7.34019 8.76501ZM7.53464 11.0012C7.53464 11.147 7.43742 11.9734 6.85408 11.9734C6.56241 11.9734 6.46518 11.7303 6.46518 11.5845C6.46518 11.3414 6.61102 11.0012 7.38881 11.0012C7.48603 11.0012 7.53464 11.0012 7.53464 11.0012Z" fill="white"/>
<path d="M9.62496 12.8487C9.86802 12.8487 11.1319 12.8973 11.1319 11.5362C11.1319 10.2723 9.91663 10.5153 9.91663 10.0292C9.91663 9.78613 10.1111 9.68891 10.4514 9.68891C10.5972 9.68891 11.1319 9.73752 11.1319 9.73752L11.2778 8.8139C11.2778 8.8139 10.9375 8.71667 10.3055 8.71667C9.57635 8.71667 8.79856 9.00834 8.79856 10.0292C8.79856 11.1959 10.0625 11.0987 10.0625 11.5362C10.0625 11.8278 9.72219 11.8764 9.47913 11.8764C9.04162 11.8764 8.5555 11.7306 8.5555 11.7306L8.40967 12.6542C8.50689 12.7514 8.79856 12.8487 9.62496 12.8487Z" fill="white"/>
<path d="M29.6533 7.98718L29.4588 9.34831C29.4588 9.34831 29.0699 8.86219 28.4866 8.86219C27.5629 8.86219 26.7852 9.98026 26.7852 11.2928C26.7852 12.1192 27.1741 12.9456 28.0491 12.9456C28.6324 12.9456 29.0213 12.5567 29.0213 12.5567L28.9727 12.897H29.9935L30.7227 8.08441L29.6533 7.98718ZM29.1671 10.6122C29.1671 11.1469 28.9241 11.8761 28.3407 11.8761C28.0005 11.8761 27.806 11.5845 27.806 11.0497C27.806 10.2233 28.1463 9.73721 28.6324 9.73721C28.9727 9.78582 29.1671 10.0289 29.1671 10.6122Z" fill="white"/>
<path d="M1.84724 12.7997L2.43058 9.20248L2.5278 12.7997H3.20836L4.52088 9.20248L3.98615 12.7997H5.05561L5.88201 7.98718H4.22921L3.20836 10.9525L3.15975 7.98718H1.7014L0.875 12.7997H1.84724Z" fill="white"/>
<path d="M17.4032 12.7997C17.6949 11.1469 17.7435 9.78581 18.4727 10.0289C18.5699 9.39691 18.7157 9.10524 18.813 8.86218H18.6185C18.181 8.86218 17.7921 9.44552 17.7921 9.44552L17.8893 8.91079H16.9171L16.2852 12.7997H17.4032Z" fill="white"/>
<path d="M23.6253 8.76501C22.9448 8.76501 22.4101 8.95946 22.4101 8.95946L22.2642 9.83447C22.2642 9.83447 22.7017 9.64003 23.3823 9.64003C23.7226 9.64003 24.0142 9.68864 24.0142 9.98031C24.0142 10.1748 23.9656 10.2234 23.9656 10.2234H23.5281C22.6531 10.2234 21.7295 10.5636 21.7295 11.7303C21.7295 12.654 22.3128 12.8484 22.7017 12.8484C23.3823 12.8484 23.7226 12.4109 23.7712 12.4109L23.7226 12.7998H24.6462L25.0351 10.0289C25.0351 8.81363 23.9656 8.76501 23.6253 8.76501ZM23.8684 11.0012C23.8684 11.147 23.7712 11.9734 23.1878 11.9734C22.8962 11.9734 22.799 11.7303 22.799 11.5845C22.799 11.3414 22.9448 11.0012 23.7226 11.0012C23.8198 11.0012 23.8198 11.0012 23.8684 11.0012Z" fill="white"/>
<path d="M25.8129 12.7997C26.1046 11.1469 26.1532 9.78581 26.8824 10.0289C26.9796 9.39691 27.1254 9.10524 27.2226 8.86218H27.0282C26.5907 8.86218 26.2018 9.44552 26.2018 9.44552L26.299 8.91079H25.3268L24.6948 12.7997H25.8129Z" fill="white"/>
</svg>
