<svg width="173" height="16" viewBox="0 0 173 16" fill="none" xmlns="http://www.w3.org/2000/svg">
<path d="M1.35127 12.6365C1.35127 12.6365 1.07491 13.2123 3.89377 13.3032C6.71264 13.3941 27.6054 10.788 50.5432 9.72741C73.481 8.6668 95.0371 7.45468 115.653 8.6668C136.27 9.84862 145.666 11.5456 145.666 11.5456C145.666 11.5456 154.675 13.3638 157.328 14.1516C159.981 14.9395 160.534 15.3941 163.519 14.8486C166.504 14.3032 170.373 11.8789 171.589 10.4547C172.197 9.7274 172.418 9.33347 172.418 9.00013C172.418 9.00013 172.418 8.48498 172.031 7.93953C169.433 4.30316 148.43 2.6365 148.43 2.6365C148.43 2.6365 120.407 0.424376 95.0923 0.36377C90.6153 0.36377 86.9674 0.424376 86.2488 0.424376C84.3143 0.454679 81.2744 0.545587 75.8025 0.757709C68.2855 1.06074 62.5372 1.39407 61.487 1.45468C38.8809 2.81832 23.5706 4.09104 19.9779 4.42438C19.5357 4.45468 19.2041 4.48498 18.9277 4.51528C15.7219 4.6365 13.1242 4.96983 11.2449 5.27286C9.08933 5.60619 7.7628 5.81832 6.21519 6.39407C4.99921 6.81832 2.56725 7.78801 1.29599 9.54559C0.798548 10.485 0.135286 11.8183 1.35127 12.6365Z" fill="#009CA6"/>
</svg>
