<svg width="37" height="47" viewBox="0 0 37 47" fill="none" xmlns="http://www.w3.org/2000/svg">
<path d="M29.0764 0H0.0910645V47H36.9088V7.83235L29.0764 0Z" fill="#E8E8E8"/>
<path d="M30.6563 23.2429C30.0916 22.2363 28.1402 21.9201 27.2449 21.7778C26.5393 21.6656 25.8189 21.6321 25.1052 21.6327C24.5448 21.629 23.9926 21.6566 23.4476 21.6876C23.2467 21.7011 23.0478 21.7184 22.8491 21.7356C22.6454 21.5248 22.4485 21.307 22.258 21.0842C21.0457 19.6492 20.0669 18.0218 19.2694 16.3307C19.4811 15.5136 19.6505 14.6609 19.7529 13.7752C19.9397 12.1588 20.0038 10.3168 19.3982 8.7757C19.1891 8.24383 18.6314 7.59632 17.9881 7.91876C17.2485 8.28956 17.0405 9.34013 16.9802 10.0848C16.9317 10.6868 16.9656 11.2903 17.0667 11.8821C17.1696 12.478 17.3353 13.0439 17.5158 13.6089C17.6841 14.127 17.8697 14.641 18.072 15.1503C17.9436 15.5511 17.8074 15.945 17.6643 16.3289C17.3307 17.2036 16.9699 18.0347 16.623 18.8341C16.4401 19.2305 16.261 19.6185 16.0859 19.9979C15.5315 21.2155 14.9297 22.4109 14.2543 23.5664C12.6789 24.1222 11.2651 24.7664 10.091 25.5235C9.46112 25.9305 8.90476 26.3724 8.44141 26.8572C8.00394 27.3148 7.55935 27.9087 7.52044 28.5661C7.49858 28.9372 7.64554 29.2973 7.94953 29.5174C8.36762 29.8298 8.92166 29.809 9.40671 29.7073C10.9957 29.3741 12.2158 28.0082 13.2549 26.857C13.9706 26.0641 14.7853 25.0572 15.6374 23.8396C15.6393 23.8368 15.6411 23.834 15.6431 23.8312C17.1047 23.3781 18.6953 22.9955 20.3835 22.7143C21.1547 22.5864 21.9464 22.4817 22.7539 22.4083C23.3217 22.9401 23.9353 23.4244 24.6047 23.8289C25.126 24.1496 25.6805 24.4204 26.2609 24.6224C26.8478 24.8142 27.4382 24.9707 28.0479 25.0698C28.3558 25.1138 28.6707 25.1338 28.9923 25.1217C29.7102 25.0946 30.7406 24.8193 30.8082 23.9482C30.829 23.6816 30.7715 23.4478 30.6563 23.2429ZM13.4695 24.8411C13.1332 25.362 12.8089 25.8305 12.5034 26.2427C11.7551 27.2608 10.9005 28.4701 9.66311 28.9223C9.4281 29.0082 9.11869 29.0969 8.79253 29.0777C8.50202 29.0606 8.21554 28.9324 8.22872 28.6025C8.23523 28.4298 8.31972 28.2095 8.44931 27.9931C8.59116 27.7558 8.76679 27.5382 8.957 27.338C9.36455 26.9099 9.87983 26.4949 10.4726 26.1106C11.3818 25.5207 12.4673 24.9898 13.6772 24.5161C13.6076 24.6261 13.5381 24.7356 13.4695 24.8411ZM17.6894 11.7792C17.5961 11.2345 17.582 10.6821 17.6393 10.151C17.6678 9.88549 17.7219 9.6263 17.8002 9.38338C17.8666 9.1772 18.0098 8.67401 18.2383 8.60937C18.615 8.50272 18.7308 9.31145 18.7734 9.54026C19.0162 10.8418 18.8023 12.2892 18.511 13.566C18.4646 13.769 18.413 13.9689 18.3602 14.1679C18.2699 13.9197 18.1839 13.6707 18.1047 13.4205C17.9342 12.8741 17.7782 12.3213 17.6894 11.7792ZM20.2756 22.0539C18.8603 22.2833 17.5139 22.5839 16.2483 22.9387C16.4007 22.8961 17.0971 21.5764 17.2524 21.3025C17.9842 20.0135 18.5829 18.6607 19.0131 17.2415C19.7727 18.7438 20.6946 20.1809 21.8272 21.4602C21.9315 21.5763 22.0375 21.691 22.1454 21.8043C21.5108 21.8727 20.8862 21.9559 20.2756 22.0539ZM29.8471 23.8667C29.7953 24.1465 29.1977 24.3065 28.9188 24.3505C28.0948 24.4801 27.2229 24.3764 26.4342 24.1115C25.893 23.9298 25.3711 23.6824 24.8752 23.3847C24.3822 23.0869 23.921 22.7366 23.4899 22.3503C24.0215 22.3183 24.5595 22.2974 25.1002 22.3076C25.641 22.3131 26.1858 22.3404 26.7241 22.4106C27.7334 22.5231 28.8644 22.8696 29.6589 23.5246C29.8153 23.6537 29.8652 23.7678 29.8471 23.8667Z" fill="#FB3449"/>
<path d="M30.2885 3.91625H0.0910645V0H29.0764L30.2885 3.91625Z" fill="#FB3449"/>
<path d="M14.6628 37.3832C14.6628 38.2142 14.4178 38.856 13.9277 39.3087C13.4375 39.7615 12.7414 39.9878 11.8392 39.9878H11.2745V42.4553H9.26514V35.0176H11.8394C12.7788 35.0176 13.4843 35.2228 13.9557 35.6332C14.4271 36.0435 14.6628 36.6268 14.6628 37.3832ZM11.2747 38.3497H11.641C11.9428 38.3497 12.1828 38.2651 12.3609 38.0953C12.539 37.9257 12.628 37.6917 12.628 37.3932C12.628 36.8913 12.3499 36.6403 11.7937 36.6403H11.2747V38.3497Z" fill="#A4A9AD"/>
<path d="M22.1616 38.5787C22.1616 39.8199 21.8198 40.7764 21.1365 41.4479C20.4531 42.1195 19.4923 42.4553 18.2545 42.4553H15.8481V35.0176H18.4224C19.6162 35.0176 20.5378 35.3228 21.1873 35.9333C21.8367 36.5437 22.1616 37.4256 22.1616 38.5787ZM20.0758 38.65C20.0758 37.9682 19.941 37.463 19.6714 37.1339C19.4018 36.805 18.9922 36.6405 18.4427 36.6405H17.8578V40.8069H18.3055C18.9161 40.8069 19.3637 40.6297 19.6486 40.2752C19.9334 39.921 20.0758 39.3792 20.0758 38.65Z" fill="#A4A9AD"/>
<path d="M25.4736 42.4553H23.4946V35.0176H27.8902V36.6302H25.4736V38.0496H27.7019V39.6623H25.4736V42.4553Z" fill="#A4A9AD"/>
<path d="M29.0764 7.83235H36.9088L29.0764 0V7.83235Z" fill="#D1D3D3"/>
</svg>
