<svg width="82" height="82" viewBox="0 0 82 82" fill="none" xmlns="http://www.w3.org/2000/svg">
<path d="M75.1666 57.81V68.06C75.1705 69.0116 74.9756 69.9534 74.5944 70.8253C74.2132 71.6971 73.6541 72.4798 72.9529 73.123C72.2517 73.7663 71.4239 74.2561 70.5225 74.5609C69.6211 74.8658 68.666 74.979 67.7183 74.8933C57.2047 73.7509 47.1056 70.1583 38.2325 64.4042C29.9772 59.1584 22.9782 52.1594 17.7325 43.9042C11.9582 34.9908 8.36481 24.8426 7.24331 14.2817C7.15793 13.3369 7.27021 12.3846 7.57302 11.4856C7.87582 10.5865 8.36251 9.76036 9.00209 9.05971C9.64168 8.35906 10.4201 7.79926 11.2879 7.41596C12.1557 7.03265 13.0938 6.83423 14.0425 6.83334H24.2925C25.9506 6.81702 27.5581 7.40419 28.8153 8.48541C30.0726 9.56663 30.8937 11.0681 31.1258 12.71C31.5584 15.9902 32.3608 19.211 33.5175 22.3108C33.9772 23.5337 34.0767 24.8628 33.8042 26.1405C33.5317 27.4182 32.8986 28.5911 31.98 29.52L27.6408 33.8592C32.5046 42.413 39.587 49.4954 48.1408 54.3592L52.48 50.02C53.4089 49.1014 54.5818 48.4683 55.8595 48.1958C57.1372 47.9233 58.4662 48.0228 59.6891 48.4825C62.789 49.6392 66.0098 50.4415 69.29 50.8742C70.9497 51.1083 72.4654 51.9443 73.549 53.2231C74.6325 54.5019 75.2082 56.1344 75.1666 57.81Z" stroke="#009CA6" stroke-width="2" stroke-linecap="round" stroke-linejoin="round"/>
<path d="M48.0042 6.8335C54.9682 7.56729 61.4732 10.6561 66.4434 15.589C71.4136 20.5219 74.5513 27.0035 75.3375 33.9618" stroke="#009CA6" stroke-width="2" stroke-linecap="round" stroke-linejoin="round"/>
<path d="M48.0042 20.5C51.3645 21.1626 54.448 22.82 56.8546 25.2571C59.2612 27.6941 60.8797 30.7983 61.5 34.1667" stroke="#009CA6" stroke-width="2" stroke-linecap="round" stroke-linejoin="round"/>
</svg>
