<svg width="198" height="16" viewBox="0 0 198 16" fill="none" xmlns="http://www.w3.org/2000/svg">
<path d="M1.42993 12.6363C1.42993 12.6363 1.11302 13.212 4.34552 13.3029C7.57802 13.3938 31.5366 10.7878 57.8403 9.72716C84.144 8.66656 108.863 7.45443 132.505 8.66656C156.146 9.84837 166.921 11.5453 166.921 11.5453C166.921 11.5453 177.253 13.3635 180.295 14.1514C183.337 14.9393 183.971 15.3938 187.394 14.8484C190.817 14.3029 195.253 11.8787 196.648 10.4544C197.345 9.72716 197.598 9.33322 197.598 8.99989C197.598 8.99989 197.598 8.48474 197.155 7.93928C194.176 4.30292 170.09 2.63625 170.09 2.63625C170.09 2.63625 137.956 0.424131 108.926 0.363525C103.793 0.363525 99.6093 0.424132 98.7853 0.424132C96.5669 0.454435 93.0809 0.545343 86.806 0.757465C78.186 1.06049 71.5942 1.39383 70.39 1.45443C44.4666 2.81807 26.9097 4.0908 22.7898 4.42413C22.2827 4.45443 21.9024 4.48474 21.5855 4.51504C17.9094 4.63625 14.9304 4.96959 12.7754 5.27262C10.3035 5.60595 8.78229 5.81807 7.00758 6.39383C5.61317 6.81807 2.82434 7.78777 1.36655 9.54534C0.796108 10.4847 0.0355192 11.8181 1.42993 12.6363Z" fill="#009CA6"/>
</svg>
