<svg width="185" height="16" viewBox="0 0 185 16" fill="none" xmlns="http://www.w3.org/2000/svg">
<path d="M0.910538 12.6364C0.910538 12.6364 0.613151 13.2121 3.64649 13.303C6.67984 13.3939 29.1623 10.7879 53.8454 9.72728C78.5284 8.66668 101.725 7.45456 123.91 8.66668C146.095 9.8485 156.206 11.5455 156.206 11.5455C156.206 11.5455 165.901 13.3636 168.756 14.1515C171.61 14.9394 172.205 15.394 175.417 14.8485C178.629 14.303 182.792 11.8788 184.101 10.4546C184.755 9.72728 184.993 9.33334 184.993 9.00001C184.993 9.00001 184.993 8.48486 184.576 7.9394C181.781 4.30304 159.18 2.63637 159.18 2.63637C159.18 2.63637 129.025 0.424254 101.784 0.363647C96.9664 0.363647 93.0409 0.424254 92.2677 0.424254C90.186 0.454557 86.9147 0.545465 81.0265 0.757587C72.9376 1.06062 66.7519 1.39395 65.6219 1.45456C41.2956 2.81819 24.8204 4.09092 20.9544 4.42425C20.4786 4.45456 20.1217 4.48486 19.8243 4.51516C16.3746 4.63637 13.5792 4.96971 11.557 5.27274C9.23736 5.60607 7.80991 5.81819 6.14454 6.39395C4.83604 6.81819 2.21904 7.78789 0.851061 9.54546C0.315765 10.4849 -0.397963 11.8182 0.910538 12.6364Z" fill="#009CA6"/>
</svg>
