<svg width="30" height="30" viewBox="0 0 30 30" fill="none" xmlns="http://www.w3.org/2000/svg">
<g clip-path="url(#clip0_766_389)">
<rect width="30" height="30" rx="15" fill="white"/>
<path fill-rule="evenodd" clip-rule="evenodd" d="M100 0H0V100H100V0ZM20.64 11.0928C21.1283 11.0195 21.6051 10.8836 22.0587 10.6884C22.0946 10.6733 22.1097 10.6637 22.116 10.6677C22.1206 10.6707 22.1206 10.6809 22.1206 10.7015C22.1247 10.7868 22.0968 10.8705 22.0424 10.9363C21.7279 11.3775 21.3511 11.7708 20.9238 12.1038C20.9125 12.1121 20.8997 12.1206 20.8863 12.1296C20.8262 12.1696 20.7542 12.2177 20.7542 12.2897C20.7542 14.6052 20.1606 16.9175 18.4713 18.5938C16.3221 20.7299 13.0999 21.3104 10.2365 20.5212C9.68362 20.3631 9.14988 20.1443 8.64502 19.8689C8.47543 19.7776 8.31237 19.683 8.1493 19.5754C8.11343 19.5428 8.08082 19.5069 8.11343 19.4906C8.14604 19.4743 8.17539 19.4711 8.30258 19.4906C9.109 19.5624 9.92138 19.4578 10.6833 19.1841C10.7174 19.1724 10.7548 19.1597 10.7948 19.1462C11.2448 18.9944 12.029 18.7298 12.2357 18.3524L12.2553 18.3329C12.1844 18.3171 12.1182 18.3109 12.054 18.3048C12.0118 18.3008 11.9705 18.2969 11.9291 18.2905C11.166 18.0687 10.1256 17.6708 9.64623 16.3663C9.61688 16.2913 9.64623 16.2489 9.7245 16.2652C10.088 16.3145 10.4571 16.3035 10.817 16.2326C10.6906 16.2075 10.567 16.1692 10.4485 16.1185C9.96226 15.9219 9.53695 15.5997 9.21607 15.1848C8.89518 14.77 8.69024 14.2773 8.62219 13.7573C8.61294 13.6488 8.61294 13.5397 8.62219 13.4312C8.62545 13.3529 8.66132 13.3301 8.72655 13.3725C9.07386 13.5493 9.45314 13.6547 9.84191 13.6823C9.71798 13.5844 9.60057 13.4801 9.48643 13.3725C8.6385 12.5669 8.30911 10.9363 8.98745 9.90572C9.04289 9.82745 9.07877 9.82745 9.14725 9.90572C10.7061 11.6766 12.614 12.5017 14.9393 12.8441C14.998 12.8539 14.998 12.8441 14.998 12.7756C14.9295 12.3753 14.9395 11.9655 15.0274 11.569C15.1339 11.1521 15.3285 10.7629 15.5981 10.4275C15.8543 10.1017 16.1738 9.83101 16.5373 9.63177C16.9065 9.44279 17.3106 9.33178 17.7244 9.30564C18.151 9.27862 18.5781 9.34888 18.9735 9.5111C19.2664 9.64087 19.5372 9.81585 19.7758 10.0296C19.828 10.0775 19.877 10.1287 19.9225 10.1829C19.9376 10.198 19.9565 10.2087 19.9772 10.2139C19.9979 10.2191 20.0196 10.2185 20.0399 10.2123C20.625 10.0663 21.1893 9.84715 21.7195 9.56002C21.731 9.55374 21.7439 9.55045 21.757 9.55045C21.7701 9.55045 21.783 9.55374 21.7945 9.56002C21.8099 9.57098 21.8046 9.58929 21.7995 9.60705C21.797 9.61573 21.7945 9.62428 21.7945 9.63177C21.6959 9.93915 21.5411 10.2256 21.3379 10.4764C21.2042 10.6428 20.8683 11.0537 20.64 11.0928Z" fill="#BC1A1A"/>
</g>
<defs>
<clipPath id="clip0_766_389">
<rect width="30" height="30" rx="15" fill="white"/>
</clipPath>
</defs>
</svg>
