<svg width="228" height="16" viewBox="0 0 228 16" fill="none" xmlns="http://www.w3.org/2000/svg">
<path d="M1.70897 12.6364C1.70897 12.6364 1.34399 13.2121 5.06673 13.303C8.78947 13.3939 36.3815 10.7879 66.6744 9.72727C96.9673 8.66666 125.435 7.45454 152.662 8.66666C179.889 9.84848 192.299 11.5455 192.299 11.5455C192.299 11.5455 204.197 13.3636 207.701 14.1515C211.204 14.9394 211.934 15.3939 215.876 14.8485C219.818 14.303 224.927 11.8788 226.533 10.4545C227.336 9.72727 227.628 9.33333 227.628 9C227.628 9 227.628 8.48484 227.117 7.93939C223.686 4.30303 195.948 2.63636 195.948 2.63636C195.948 2.63636 158.94 0.424238 125.508 0.363632C119.596 0.363632 114.778 0.424238 113.829 0.424238C111.274 0.454542 107.26 0.54545 100.033 0.757571C90.1058 1.0606 82.5143 1.39394 81.1274 1.45454C51.2725 2.81818 31.0529 4.09091 26.3082 4.42424C25.7243 4.45454 25.2863 4.48484 24.9213 4.51515C20.6876 4.63636 17.2569 4.96969 14.7751 5.27272C11.9282 5.60606 10.1764 5.81818 8.13251 6.39394C6.52663 6.81818 3.31485 7.78787 1.63597 9.54545C0.979016 10.4848 0.103077 11.8182 1.70897 12.6364Z" fill="#BC1A1A"/>
</svg>
