<svg width="49" height="16" viewBox="0 0 49 16" fill="none" xmlns="http://www.w3.org/2000/svg">
<path d="M45.073 1.17944H42.0934C41.1926 1.17944 40.4996 1.45662 40.0839 2.35743L34.4019 15.3152H38.4209C38.4209 15.3152 39.1138 13.5829 39.2524 13.1671C39.6681 13.1671 43.6178 13.1671 44.1722 13.1671C44.3108 13.6522 44.6572 15.2459 44.6572 15.2459H48.2605L45.073 1.17944ZM40.3611 10.2568C40.7075 9.42532 41.8855 6.30713 41.8855 6.30713C41.8855 6.37642 42.232 5.47561 42.3706 4.99056L42.6477 6.23784C42.6477 6.23784 43.41 9.6332 43.5485 10.3261H40.3611V10.2568Z" fill="#3362AB"/>
<path d="M34.6787 10.6727C34.6787 13.583 32.0456 15.5232 27.9573 15.5232C26.225 15.5232 24.5619 15.1768 23.6611 14.761L24.2155 11.5735L24.7005 11.7814C25.9478 12.3357 26.7793 12.5436 28.3038 12.5436C29.4125 12.5436 30.5904 12.1279 30.5904 11.1578C30.5904 10.5341 30.1054 10.1184 28.5809 9.42544C27.1258 8.73251 25.1856 7.62382 25.1856 5.61432C25.1856 2.84259 27.888 0.97168 31.6991 0.97168C33.1543 0.97168 34.4016 1.24885 35.1638 1.59532L34.6094 4.64421L34.3323 4.36704C33.6393 4.08987 32.7385 3.8127 31.422 3.8127C29.9668 3.88199 29.2739 4.50563 29.2739 5.05997C29.2739 5.68361 30.1054 6.16866 31.422 6.7923C33.6393 7.8317 34.6787 9.00968 34.6787 10.6727Z" fill="#3362AB"/>
<path d="M0.86377 1.31831L0.933063 1.04114H6.89227C7.72378 1.04114 8.34742 1.31831 8.5553 2.21912L9.87187 8.4555C8.5553 5.12943 5.50641 2.427 0.86377 1.31831Z" fill="#F9B50B"/>
<path d="M18.2562 1.17952L12.2278 15.246H8.13946L4.6748 3.46619C7.16936 5.05994 9.24815 7.55449 10.0104 9.28681L10.4261 10.742L14.168 1.11023H18.2562V1.17952Z" fill="#3362AB"/>
<path d="M19.8501 1.11023H23.6612L21.2359 15.246H17.4248L19.8501 1.11023Z" fill="#3362AB"/>
</svg>
