<svg width="30" height="30" viewBox="0 0 30 30" fill="none" xmlns="http://www.w3.org/2000/svg">
<g clip-path="url(#clip0_766_385)">
<rect width="30" height="30" rx="15" fill="white"/>
<path fill-rule="evenodd" clip-rule="evenodd" d="M30 0H0V30H30V0ZM8.57622 18.5019L7.5 22.5L11.5422 21.4223C13.1147 22.2678 14.9402 22.5193 16.6836 22.1307C18.427 21.742 19.9715 20.7393 21.0335 19.3065C22.0956 17.8737 22.604 16.107 22.4655 14.3304C22.327 12.5539 21.5509 10.8868 20.2796 9.63496C19.0082 8.38315 17.3269 7.63063 15.5442 7.51548C13.7615 7.40034 11.997 7.9303 10.5744 9.00811C9.1518 10.0859 8.16659 11.6393 7.79956 13.3832C7.43252 15.1271 7.70827 16.9445 8.57622 18.5019ZM11.9871 20.0741L11.7371 19.9262L9.47871 20.5263L10.0804 18.2948L9.9236 18.037C9.34908 17.1039 9.04546 16.03 9.04653 14.9349C9.04456 13.6142 9.48065 12.33 10.2868 11.2823C11.093 10.2347 12.224 9.48242 13.5035 9.14283C14.7831 8.80325 16.1393 8.89539 17.3608 9.4049C18.5824 9.91441 19.6007 10.8127 20.257 11.9597C20.9133 13.1067 21.1708 14.4381 20.9893 15.7463C20.8078 17.0546 20.1975 18.2662 19.2536 19.1923C18.3097 20.1185 17.0852 20.7072 15.7708 20.8667C14.4564 21.0262 13.1261 20.7475 11.9871 20.0741ZM17.3027 15.7189C17.4863 15.7607 17.6579 15.8436 17.8044 15.9615C17.8471 15.9866 17.8938 16.0125 17.9426 16.0395C18.2232 16.1951 18.5742 16.3896 18.6391 16.6885C18.6709 16.86 18.6487 17.0372 18.5756 17.1956C18.4511 17.4579 18.2639 17.6857 18.0304 17.8589C17.7969 18.0321 17.5243 18.1454 17.2367 18.1888C16.7318 18.2459 16.2208 18.1656 15.7579 17.9563C15.3124 17.8042 14.8859 17.6014 14.4868 17.352C13.6916 16.8612 12.9994 16.221 12.4488 15.4671C12.2793 15.2375 12.1224 14.9991 11.9785 14.7528C11.779 14.4313 11.6277 14.0825 11.5293 13.7174C11.4906 13.5654 11.4707 13.4093 11.47 13.2525C11.4603 12.9733 11.5135 12.6954 11.6257 12.4394C11.7379 12.1834 11.9062 11.9558 12.1183 11.7733C12.2404 11.6648 12.3915 11.594 12.5531 11.5692C12.7147 11.5445 12.8801 11.5669 13.0293 11.6338C13.3184 11.8775 13.5316 12.1987 13.6436 12.5594C13.7885 12.8167 13.8562 13.1101 13.8385 13.4046C13.759 13.6717 13.6133 13.9144 13.4148 14.1104C13.3581 14.1588 13.3225 14.2273 13.3154 14.3014C13.3082 14.3755 13.3302 14.4494 13.3767 14.5077C13.9214 15.4412 14.7666 16.1635 15.7749 16.5574C15.831 16.5881 15.8964 16.5973 15.9588 16.5833C16.0212 16.5693 16.0763 16.533 16.1138 16.4814C16.1696 16.4138 16.2254 16.3251 16.2841 16.2316L16.2842 16.2316L16.2842 16.2315C16.413 16.0267 16.5561 15.799 16.7452 15.7206C16.9285 15.6778 17.1192 15.6772 17.3027 15.7189Z" fill="#BC1A1A"/>
</g>
<defs>
<clipPath id="clip0_766_385">
<rect width="30" height="30" rx="15" fill="white"/>
</clipPath>
</defs>
</svg>
