<svg width="31" height="30" viewBox="0 0 31 30" fill="none" xmlns="http://www.w3.org/2000/svg">
<g clip-path="url(#clip0_766_393)">
<rect width="31" height="30" rx="15" fill="white"/>
<path fill-rule="evenodd" clip-rule="evenodd" d="M100 0H0V100H100V0ZM23.8118 10.8736C23.6094 10.1373 23.0106 9.55636 22.2488 9.35727C20.8714 9 15.345 9 15.345 9C15.345 9 9.82137 9 8.44116 9.35727C7.68219 9.55364 7.08345 10.1345 6.87824 10.8736C6.51 12.21 6.51 15 6.51 15C6.51 15 6.51 17.79 6.87824 19.1264C7.08063 19.8627 7.67938 20.4436 8.44116 20.6427C9.82137 21 15.345 21 15.345 21C15.345 21 20.8714 21 22.2488 20.6427C23.0078 20.4464 23.6066 19.8655 23.8118 19.1264C24.18 17.79 24.18 15 24.18 15C24.18 15 24.18 12.21 23.8118 10.8736ZM13.5797 17.5718L18.1701 15L13.5797 12.4282V17.5718Z" fill="#BC1A1A"/>
</g>
<defs>
<clipPath id="clip0_766_393">
<rect width="31" height="30" rx="15" fill="white"/>
</clipPath>
</defs>
</svg>
