<svg width="58" height="58" viewBox="0 0 58 58" fill="none" xmlns="http://www.w3.org/2000/svg">
<path fill-rule="evenodd" clip-rule="evenodd" d="M49.771 10.7781C52.0601 11.3909 53.8591 13.1896 54.4717 15.4786C55.579 19.6232 55.5834 28.2758 55.5834 28.2758C55.5834 28.2758 55.5834 36.9282 54.4717 41.0728C53.8591 43.3618 52.0601 45.1606 49.771 45.7732C45.6267 46.8849 29 46.8849 29 46.8849C29 46.8849 12.3734 46.8849 8.22877 45.7732C5.93982 45.1606 4.14105 43.3618 3.52833 41.0728C2.41669 36.9282 2.41669 28.2758 2.41669 28.2758C2.41669 28.2758 2.41669 19.6232 3.52833 15.4786C4.14105 13.1896 5.93982 11.3909 8.22877 10.7781C12.3734 9.6665 29 9.6665 29 9.6665C29 9.6665 45.6267 9.6665 49.771 10.7781ZM37.4907 28.2765L23.6782 36.2506V20.3023L37.4907 28.2765Z" stroke="white" stroke-linejoin="round"/>
</svg>
